<?xml version="1.0" encoding="UTF-8"?>
<svg xmlns="http://www.w3.org/2000/svg" xmlns:xlink="http://www.w3.org/1999/xlink" width="389.000mm" height="389.000mm" viewBox="174.499573 -491.500488 388.999939 389.000000">
    <path transform="matrix(1,0,0,-1,368.999573,-297.000488)" style="stroke:#00e000;stroke-width:0.05mm;fill:none" d="M194.499969,-188.5C194.499969,-191.813705,191.81369,-194.5,188.499969,-194.5L-188.5,-194.5C-191.813705,-194.5,-194.5,-191.813705,-194.5,-188.5L-194.5,188.5C-194.5,191.813721,-191.813705,194.5,-188.5,194.5L188.499969,194.5C191.81369,194.5,194.499969,191.813721,194.499969,188.5L194.499969,-188.5z"/>
    <path transform="matrix(1,0,0,-1,307.999603,-196.000488)" style="stroke:#00e000;stroke-width:0.05mm;fill:none" d="M95.917015,149.096008L95.384003,149.491394L95.226791,149.608002L94.360001,150.250977L94.057999,150.475006L93.848,150.600861L93.796036,150.632004L93.335999,150.907715L92.941734,151.143997L92.311996,151.521423L92.08744,151.656006L91.288002,152.135117L91.233139,152.167999L90.378838,152.679993L90.264,152.748825L89.751999,153.055679L89.524536,153.192001L89.239998,153.362518L89.048996,153.47699L88.568993,153.70401L87.192001,154.355194L86.403656,154.727997L85.143997,155.3237L84.238319,155.751999L83.770996,155.972992L83.096001,156.214493L82.957619,156.264008L82.071999,156.580841L81.559998,156.764023L81.52652,156.776001L81.047997,156.947205L80.024002,157.313553L79,157.679901L78.664314,157.800003L78.273003,157.940002L76.952003,158.270889L76.787888,158.311996L75.928001,158.52739L74.903999,158.783875L74.743851,158.824005L74.500328,158.88501L72.856003,159.296875L72.699821,159.335999L72.608002,159.359009L71.832001,159.474136L70.807999,159.626068L69.783997,159.778015L69.312241,159.847992L68.760002,159.929932L66.832001,160.216003L66.711998,160.221909L64.664001,160.322693L64.152,160.347885L63.905838,160.360001L63.639999,160.373077L62.615997,160.423477L61.591999,160.473877L61,160.502991L60.568001,160.48175L59.543999,160.431351L58.52,160.380951L58.094162,160.360001L58.007999,160.355759L57.496002,160.330566L56.472,160.280182L55.167999,160.216003L54.424,160.105621L52.687759,159.847992L52.375999,159.801743L51.351997,159.649811L50.327999,159.497879L49.432438,159.36499L49.391998,159.359009L49.304001,159.33696L48.279999,159.08046L47.256149,158.824005L47.256001,158.823959L46.231998,158.567474L45.212116,158.311996L45.208,158.310974L44.183998,158.054474L43.727001,157.940002L43.335682,157.800003L43.16,157.737152L42.136002,157.370789L40.47348,156.776001L40.088001,156.638092L39.063999,156.271729L38.229,155.972992L38.040001,155.883621L37.761677,155.751999L37.015999,155.399368L36.679012,155.23999L36.504002,155.157227L35.992001,154.9151L35.596344,154.727997L34.967999,154.430847L33.944,153.946594L33.431011,153.70401L32.951,153.47699L32.919998,153.45842L32.475464,153.192001L32.408001,153.151566L31.896,152.844727L31.621162,152.679993L31.383999,152.537872L30.872002,152.231018L29.912563,151.656006L29.848,151.61731L29.058262,151.143997L28.824001,151.003601L28.203964,150.632004L27.942001,150.475006L27.799999,150.369659L26.773209,149.608002L26.082985,149.096008L25.751999,148.850479L25.392765,148.584L25.240002,148.470673L24.728001,148.090881L24.012321,147.559998L23.703999,147.331299L23.251999,146.996002L22.74437,146.536011L22.68,146.477661L22.179356,146.024002L22.167999,146.013702L21.655998,145.549744L21.614338,145.511993L21.049324,145L20.632,144.621826L20.48431,144.488007L19.919292,143.975998L19.636787,143.720001L19.608002,143.693909L19.354279,143.464005L18.924999,143.074997L18.813541,142.951996L18.584,142.6987L18.349583,142.440002L17.885624,141.928009L17.560001,141.568665L17.421661,141.416L16.957703,140.903992L16.535999,140.438629L16.493744,140.391998L16.029785,139.880005L16.023998,139.873611L15.565826,139.367996L15.512001,139.308594L15.004002,138.748001L14.704315,138.343994L14.487999,138.052383L13.944725,137.320007L13.564926,136.807999L13.463997,136.671936L13.185127,136.296005L12.805328,135.783997L12.440002,135.291504L12.425537,135.272003L12.045738,134.759995L11.928001,134.601288L11.665939,134.248001L11.525002,134.057999L11.416,133.876129L11.025169,133.223999L10.903999,133.02182L10.718315,132.712006L10.411461,132.199997L10.391998,132.167526L9.79776,131.175995L9.490906,130.664001L9.367996,130.458923L9.184052,130.152008L8.877197,129.639999L8.856003,129.60463L8.570343,129.127991L8.523003,129.048996L8.344002,128.670486L8.076103,128.104004L7.59185,127.080002L7.349716,126.568001L7.32,126.505157L7.10759,126.056L6.865463,125.543999L6.807999,125.422493L6.623337,125.031998L6.38121,124.519997L6.295998,124.339828L6.139076,124.008003L6.027,123.771004L5.745438,122.984001L5.562263,122.472L5.379082,121.959999L5.272003,121.66069L5.012733,120.935997L4.829559,120.424004L4.760002,120.229584L4.646378,119.912003L4.463203,119.400002L4.280029,118.888L4.248001,118.798477L4.059998,118.272987L3.95755,117.863998L3.8293,117.352013L3.736,116.979507L3.701057,116.839996L3.587082,116.384987L3.572807,116.328003L3.444557,115.816002L3.394211,115.615013L3.316307,115.304001L3.223999,114.935493L3.188057,114.792L2.960869,113.884987L2.931564,113.768013L2.767998,113.115013L2.675064,112.744003L2.647766,112.635002L2.640999,112.608002L2.585213,112.232002L2.530762,111.864998L2.509247,111.720001L2.459541,111.385002L2.433281,111.208L2.357315,110.695999L2.345291,110.614998L2.281342,110.183998L2.205376,109.671997L2.199997,109.63575L2.12941,109.160004L2.088608,108.885002L2.053444,108.648003L1.977478,108.136002L1.901512,107.624001L1.825546,107.112L1.783997,106.832001L1.772583,106.599998L1.747383,106.087997L1.722191,105.575996L1.700485,105.135002L1.671799,104.552002L1.646599,104.040001L1.621407,103.528L1.596207,103.015999L1.571014,102.503998L1.545815,101.991997L1.520622,101.480003L1.497002,101L1.498573,100.968002L1.523773,100.456001L1.548965,99.944L1.574165,99.431999L1.599358,98.919998L1.624557,98.408005L1.64975,97.895996L1.67495,97.384003L1.688004,97.118774L1.700142,96.872002L1.725342,96.360001L1.750534,95.848L1.775734,95.335999L1.783997,95.167999L1.835037,94.823997L1.911003,94.311996L1.974365,93.885002L2.062943,93.288002L2.138908,92.776001L2.159828,92.635002L2.199997,92.36425L2.214874,92.264L2.274078,91.864998L2.29084,91.751999L2.345291,91.385002L2.366806,91.239998L2.442772,90.727997L2.459541,90.614998L2.518738,90.216003L2.530762,90.135002L2.594711,89.704002L2.640999,89.391998L2.647766,89.364998L2.691093,89.192001L2.947594,88.167999L2.960869,88.114998L3.204094,87.143997L3.223999,87.064522L3.332336,86.632004L3.460587,86.120003L3.588837,85.608002L3.717087,85.096001L3.973579,84.071999L4.020424,83.885002L4.059998,83.726997L4.248001,83.201515L4.302925,83.047997L4.486099,82.536003L4.669273,82.024002L4.760002,81.770416L4.852455,81.512001L5.035629,81L5.272003,80.339317L5.401985,79.975998L5.585159,79.463997L5.768333,78.952003L6.027,78.229004L6.169342,77.928001L6.295998,77.660179L6.411476,77.416L6.653603,76.903999L6.807999,76.577507L6.895729,76.391998L7.137856,75.879997L7.32,75.494843L7.379982,75.367996L7.622116,74.856003L8.106369,73.832001L8.344002,73.329514L8.348495,73.32L8.523003,72.951004L8.608704,72.807999L8.856003,72.39537L8.915558,72.295998L9.222404,71.783997L9.367996,71.541069L9.529259,71.272003L9.836113,70.760002L10.391998,69.832474L10.449821,69.736L10.756668,69.223999L10.903999,68.978172L10.910095,68.968002L11.063522,68.711998L11.416,68.123871L11.525002,67.942001L11.713417,67.688004L11.928001,67.39872L12.093208,67.176003L12.440002,66.708496L12.473007,66.664001L12.852806,66.152L13.232605,65.639999L13.463997,65.328056L13.612396,65.127998L13.975998,64.637833L13.992195,64.615997L14.487999,63.947613L14.751793,63.591999L15.004002,63.251999L15.512001,62.691399L15.623821,62.568001L16.023998,62.126385L16.08778,62.056L16.535999,61.561371L16.551739,61.543999L17.015697,61.031998L17.479656,60.52L17.560001,60.431339L17.943619,60.007999L18.407578,59.496002L18.584,59.301308L18.871536,58.984001L18.924999,58.924999L19.424908,58.472L19.608002,58.306084L19.989922,57.959999L20.554935,57.447998L20.632,57.378166L21.119949,56.936001L21.655998,56.450249L21.684967,56.424L22.167999,55.98629L22.249981,55.912003L22.68,55.522331L22.814995,55.400002L23.251999,55.003998L23.703999,54.668709L24.098598,54.375999L24.728001,53.909119L24.788822,53.863998L25.479042,53.351997L25.751999,53.149521L26.169262,52.84L26.776001,52.389931L26.859486,52.327999L27.799999,51.630333L27.942001,51.525002L28.310749,51.304001L28.824001,50.996399L29.165051,50.792L29.848,50.382694L30.019352,50.279999L30.872002,49.76899L30.87365,49.767998L31.727951,49.256001L31.896,49.155281L32.919998,48.54158L32.951,48.522999L33.431999,48.295532L33.566345,48.231998L33.944,48.053406L34.967999,47.569149L35.731678,47.208L35.992001,47.084892L37.015999,46.600636L37.897011,46.183998L38.040001,46.116379L38.229,46.027L39.063999,45.728264L39.221268,45.672001L40.088001,45.361912L40.599998,45.178734L40.65237,45.16L42.136002,44.629208L43.16,44.262852L43.514572,44.136002L43.727001,44.060001L44.183998,43.94553L45.208,43.68903L45.467621,43.624001L46.231998,43.432533L47.256001,43.176037L47.51165,43.112L48.279999,42.91954L49.304001,42.663044L49.391998,42.640999L49.432438,42.634998L49.668331,42.599998L50.327999,42.502125L51.351997,42.350189L52.375999,42.198257L52.888,42.122288L53.119102,42.088001L54.424,41.89439L55.167999,41.784L56.472,41.71983L58.52,41.619045L59.031998,41.593849L59.394676,41.576L59.543999,41.568653L60.568001,41.518261L61,41.497002L61.591999,41.526134L62.605324,41.576L62.615997,41.576527L64.664001,41.677311L66.711998,41.778095L66.832001,41.784L68.760002,42.070061L68.880898,42.088001L69.272003,42.14603L69.783997,42.221996L70.807999,42.373928L71.832001,42.525864L72.567558,42.634998L72.608002,42.640999L72.856003,42.703121L74.48835,43.112L74.500328,43.115002L74.903999,43.216114L75.928001,43.47261L76.532379,43.624001L76.952003,43.729107L78.273003,44.060001L78.485428,44.136002L78.487999,44.136921L79,44.320095L79.916527,44.647999L80.024002,44.686451L81.047997,45.052803L81.347633,45.16L81.559998,45.235977L82.071999,45.419155L82.778732,45.672001L83.096001,45.785507L83.770996,46.027L84.102989,46.183998L84.120003,46.192043L85.143997,46.6763L86.268326,47.208L87.192001,47.644814L88.433655,48.231998L89.048996,48.522999L89.239998,48.63747L90.272049,49.256001L91.12635,49.767998L91.288002,49.86488L91.980652,50.279999L92.311996,50.478584L92.834946,50.792L93.335999,51.092293L93.689247,51.304001L94.057999,51.525002L94.360001,51.749023L95.140518,52.327999L95.384003,52.508614L95.830734,52.84L95.895996,52.888412L96.408005,53.268211L96.520958,53.351997L97.211182,53.863998L97.431999,54.027802L97.901398,54.375999L97.944,54.4076L98.456001,54.787399L98.748001,55.003998L99.185005,55.400002L99.479996,55.667316L99.750015,55.912003L99.992004,56.131279L100.315033,56.424L100.503998,56.595238L100.880051,56.936001L101.015999,57.059196L101.445068,57.447998L101.528,57.523155L102.010078,57.959999L102.040001,57.987114L102.552002,58.451073L102.575104,58.472L103.074997,58.924999L103.128464,58.984001L103.575996,59.477875L104.52034,60.52L104.599998,60.607906L104.984299,61.031998L105.112,61.17292L105.448257,61.543999L105.624001,61.737938L106.376167,62.568001L106.648003,62.867966L106.996002,63.251999L107.248207,63.591999L107.628014,64.104004L107.671997,64.163307L108.007797,64.615997L108.387604,65.127998L108.695999,65.543747L108.767403,65.639999L109.147186,66.152L109.208,66.233971L109.526993,66.664001L109.720001,66.924194L110.286583,67.688004L110.474998,67.942001L110.629623,68.199997L110.744003,68.390839L110.936478,68.711998L111.243332,69.223999L111.255997,69.24514L111.550194,69.736L111.768013,70.099442L112.163887,70.760002L112.279999,70.953743L112.470741,71.272003L112.777588,71.783997L112.792,71.808044L113.391296,72.807999L113.477013,72.951004L113.651497,73.32L113.816002,73.667847L114.377876,74.856003L114.62001,75.367996L114.839996,75.833176L114.862137,75.879997L115.346397,76.903999L115.588531,77.416L115.830658,77.928001L115.863998,77.998512L115.91909,78.114998L115.973,78.229004L116.207703,78.885002L116.231667,78.952003L116.598022,79.975998L116.781189,80.487999L116.888,80.786537L116.964371,81L117.330719,82.024002L117.513901,82.536003L117.697067,83.047997L117.880249,83.559998L117.912003,83.648735L117.940002,83.726997L117.979584,83.885002L118.282913,85.096001L118.539413,86.120003L118.667664,86.632004L118.726028,86.864998L118.795914,87.143997L118.9189,87.635002L118.924156,87.655998L118.935997,87.703278L119.039131,88.114998L119.052406,88.167999L119.232002,88.885002L119.308899,89.192001L119.352226,89.364998L119.359001,89.391998L119.405289,89.704002L119.447998,89.991844L119.469238,90.135002L119.481262,90.216003L119.540459,90.614998L119.633186,91.239998L119.654709,91.385002L119.70916,91.751999L119.725922,91.864998L119.785133,92.264L119.861092,92.776001L119.911392,93.114998L119.937057,93.288002L119.959999,93.442612L120.013031,93.800003L120.088989,94.311996L120.164963,94.823997L120.216003,95.167999L120.224274,95.335999L120.249474,95.848L120.274658,96.360001L120.29985,96.872002L120.32505,97.384003L120.35025,97.895996L120.375443,98.408005L120.400642,98.919998L120.425842,99.431999L120.451027,99.944L120.472,100.370064L120.476227,100.456001L120.501427,100.968002L120.502998,101L120.479378,101.480003L120.472,101.629936L120.454178,101.991997L120.428993,102.503998L120.403793,103.015999L120.378593,103.528L120.353394,104.040001L120.328201,104.552002L120.303009,105.064003L120.277809,105.575996L120.252609,106.087997L120.227417,106.599998L120.216003,106.832001L120.174454,107.112L120.098488,107.624001L120.022522,108.136002L119.959999,108.557388L119.946564,108.648003L119.87059,109.160004L119.840172,109.364998L119.794617,109.671997L119.718658,110.183998L119.654709,110.614998L119.642677,110.695999L119.566727,111.208L119.540459,111.385002L119.490753,111.720001L119.469238,111.864998L119.359001,112.608002L119.352226,112.635002L119.324944,112.744003L119.068443,113.768013L119.039131,113.884987L118.935997,114.296722L118.811943,114.792L118.683693,115.304001L118.605789,115.615013L118.555443,115.816002L118.292679,116.865013L118.04245,117.863998L117.979584,118.115013L117.940002,118.272987L117.912003,118.351257L117.903152,118.375999L117.719971,118.888L117.536797,119.400002L117.353622,119.912003L116.987267,120.935997L116.888,121.21347L116.804092,121.447998L116.620911,121.959999L115.973,123.771004L115.863998,124.001488L115.860924,124.008003L115.61879,124.519997L115.376663,125.031998L114.89241,126.056L114.839996,126.166817L114.771347,126.311996L114.650284,126.568001L114.408157,127.080002L114.328003,127.249489L114.287086,127.335999L114.166023,127.592003L113.923897,128.104004L113.816002,128.332153L113.68177,128.615997L113.477013,129.048996L113.429657,129.127991L112.815948,130.152008L112.792,130.191956L112.509087,130.664001L112.279999,131.046265L112.20224,131.175995L111.768013,131.900558L111.588539,132.199997L111.281677,132.712006L110.974838,133.223999L110.744003,133.609161L110.667976,133.735992L110.474998,134.057999L110.334061,134.248001L109.720001,135.075806L109.574463,135.272003L109.208,135.766022L109.194672,135.783997L108.814873,136.296005L108.695999,136.456253L108.435066,136.807999L108.183998,137.146469L108.055267,137.320007L107.671997,137.8367L107.295677,138.343994L106.996002,138.748001L106.648003,139.132034L106.434174,139.367996L105.624001,140.262054L105.506264,140.391998L105.112,140.827087L105.042297,140.903992L104.599998,141.39209L104.578339,141.416L104.11438,141.928009L103.650421,142.440002L103.575996,142.522125L103.186462,142.951996L103.074997,143.074997L102.645721,143.464005L102.552002,143.54892L102.080704,143.975998L101.528,144.476837L101.515694,144.488007L101.015999,144.940796L100.950684,145L100.503998,145.404755L100.385658,145.511993L99.992004,145.868713L99.820648,146.024002L99.479996,146.332672L99.25563,146.536011L98.748001,146.996002L98.456001,147.212601L97.987679,147.559998L97.431999,147.972198L97.297455,148.071991L96.607239,148.584L96.408005,148.731781L95.917015,149.096008z"/>
    <path transform="matrix(1,0,0,-1,294.703613,-221.39949)" style="stroke:#00e000;stroke-width:0.05mm;fill:none" d="M25.217583,24.345009L25.048996,24.719002L24.810997,25.070999L24.517998,25.376999L24.176994,25.628998L23.797997,25.82L23.588997,25.883987L23.392998,25.944L22.972,25.998001L22.548996,25.980003L22.133995,25.889999L21.740997,25.732002L21.541,25.609009L21.379997,25.510002L21.060997,25.230003L20.794998,24.900002L20.587997,24.529999L20.480133,24.223999L20.446999,24.129997L20.375,23.711998L20.375,23.288002L20.446999,22.870003L20.587997,22.470001L20.75248,22.176003L20.794998,22.099998L21.060997,21.769997L21.379997,21.489998L21.541,21.390991L21.740997,21.267998L22.133995,21.110001L22.548996,21.019997L22.972,21.001999L23.392998,21.056L23.588997,21.116013L23.797997,21.18L24.176994,21.371002L24.517998,21.623001L24.810997,21.929001L24.978004,22.176003L25.048996,22.280998L25.223,22.667L25.329994,23.077003L25.365997,23.5L25.329994,23.921997L25.251373,24.223999L25.223,24.333L25.217583,24.345009z"/>
    <path transform="matrix(1,0,0,-1,397.70459,-221.39949)" style="stroke:#00e000;stroke-width:0.05mm;fill:none" d="M25.217583,24.345009L25.048996,24.719002L24.810997,25.070999L24.517998,25.376999L24.176994,25.628998L23.797997,25.82L23.588997,25.883987L23.392998,25.944L22.972,25.998001L22.548996,25.980003L22.133995,25.889999L21.740997,25.732002L21.541,25.609009L21.379997,25.510002L21.060997,25.230003L20.794998,24.900002L20.587997,24.529999L20.480133,24.223999L20.446999,24.129997L20.375,23.711998L20.375,23.288002L20.446999,22.870003L20.587997,22.470001L20.75248,22.176003L20.794998,22.099998L21.060997,21.769997L21.379997,21.489998L21.541,21.390991L21.740997,21.267998L22.133995,21.110001L22.548996,21.019997L22.972,21.001999L23.392998,21.056L23.588997,21.116013L23.797997,21.18L24.176994,21.371002L24.517998,21.623001L24.810997,21.929001L24.978004,22.176003L25.048996,22.280998L25.223,22.667L25.329994,23.077003L25.365997,23.5L25.329994,23.921997L25.251373,24.223999L25.223,24.333L25.217583,24.345009z"/>
    <path transform="matrix(1,0,0,-1,397.879578,-326.399506)" style="stroke:#00e000;stroke-width:0.05mm;fill:none" d="M25.217583,24.345009L25.048996,24.719002L24.810997,25.070999L24.517998,25.376999L24.176994,25.628998L23.797997,25.82L23.588997,25.883987L23.392998,25.944L22.972,25.998001L22.548996,25.980003L22.133995,25.889999L21.740997,25.732002L21.541,25.609009L21.379997,25.510002L21.060997,25.230003L20.794998,24.900002L20.587997,24.529999L20.480133,24.223999L20.446999,24.129997L20.375,23.711998L20.375,23.288002L20.446999,22.870003L20.587997,22.470001L20.75248,22.176003L20.794998,22.099998L21.060997,21.769997L21.379997,21.489998L21.541,21.390991L21.740997,21.267998L22.133995,21.110001L22.548996,21.019997L22.972,21.001999L23.392998,21.056L23.588997,21.116013L23.797997,21.18L24.176994,21.371002L24.517998,21.623001L24.810997,21.929001L24.978004,22.176003L25.048996,22.280998L25.223,22.667L25.329994,23.077003L25.365997,23.5L25.329994,23.921997L25.251373,24.223999L25.223,24.333L25.217583,24.345009z"/>
    <path transform="matrix(1,0,0,-1,293.528595,-326.399506)" style="stroke:#00e000;stroke-width:0.05mm;fill:none" d="M25.217583,24.345009L25.048996,24.719002L24.810997,25.070999L24.517998,25.376999L24.176994,25.628998L23.797997,25.82L23.588997,25.883987L23.392998,25.944L22.972,25.998001L22.548996,25.980003L22.133995,25.889999L21.740997,25.732002L21.541,25.609009L21.379997,25.510002L21.060997,25.230003L20.794998,24.900002L20.587997,24.529999L20.480133,24.223999L20.446999,24.129997L20.375,23.711998L20.375,23.288002L20.446999,22.870003L20.587997,22.470001L20.75248,22.176003L20.794998,22.099998L21.060997,21.769997L21.379997,21.489998L21.541,21.390991L21.740997,21.267998L22.133995,21.110001L22.548996,21.019997L22.972,21.001999L23.392998,21.056L23.588997,21.116013L23.797997,21.18L24.176994,21.371002L24.517998,21.623001L24.810997,21.929001L24.978004,22.176003L25.048996,22.280998L25.223,22.667L25.329994,23.077003L25.365997,23.5L25.329994,23.921997L25.251373,24.223999L25.223,24.333L25.217583,24.345009z"/>
</svg>
