<?xml version="1.0" encoding="UTF-8"?>
<svg xmlns="http://www.w3.org/2000/svg" xmlns:xlink="http://www.w3.org/1999/xlink" width="389.000mm" height="389.000mm" viewBox="-20.439697 -998.500000 389.000000 389.000000">
    <path transform="matrix(1,0,0,-1,174.060303,-804)" style="stroke:#00e000;stroke-width:0.05mm;fill:none" d="M194.5,-188.5C194.5,-191.813705,191.813721,-194.5,188.5,-194.5L-188.5,-194.5C-191.813705,-194.5,-194.5,-191.813705,-194.5,-188.5L-194.5,188.5C-194.5,191.813721,-191.813705,194.5,-188.5,194.5L188.5,194.5C191.813721,194.5,194.5,191.813721,194.5,188.5L194.5,-188.5z"/>
    <path transform="matrix(1,0,0,-1,74.695297,-704)" style="stroke:#00e000;stroke-width:0.05mm;fill:none" d="M175.54599,178.980011L175.140991,178.891968L175.131989,178.889999L174.738007,178.731995L174.376999,178.51001L174.05899,178.230011L173.791992,177.899994L173.749695,177.824005L173.585999,177.529999L173.444,177.130005L173.373001,176.712006L173.373001,176.287994L173.444,175.869995L173.477371,175.776001L173.585999,175.470001L173.791992,175.100006L174.05899,174.769989L174.376999,174.48999L174.738007,174.268005L175.131989,174.110001L175.140991,174.108032L175.54599,174.019989L175.970001,174.001999L176.389999,174.056L176.79599,174.179993L177.173996,174.371002L177.188995,174.38208L177.514999,174.623001L177.80899,174.929001L178.04599,175.281006L178.221008,175.666992L178.249374,175.776001L178.328003,176.078003L178.363998,176.5L178.328003,176.923004L178.221008,177.333008L178.04599,177.718994L177.975311,177.824005L177.80899,178.070999L177.514999,178.376999L177.188995,178.61792L177.173996,178.628998L176.79599,178.820007L176.389999,178.944L175.970001,178.998001L175.54599,178.980011z"/>
    <path transform="matrix(1,0,0,-1,74.695297,-704)" style="stroke:#00e000;stroke-width:0.05mm;fill:none" d="M21.740997,178.731995L21.541,178.609009L21.379997,178.51001L21.060997,178.230011L20.794998,177.899994L20.75248,177.824005L20.587997,177.529999L20.446999,177.130005L20.375,176.712006L20.375,176.287994L20.446999,175.869995L20.480133,175.776001L20.587997,175.470001L20.794998,175.100006L21.060997,174.769989L21.379997,174.48999L21.541,174.390991L21.740997,174.268005L22.133995,174.110001L22.548996,174.019989L22.972,174.001999L23.392998,174.056L23.588997,174.116013L23.797997,174.179993L24.176994,174.371002L24.517998,174.623001L24.810997,174.929001L25.048996,175.281006L25.223,175.666992L25.251373,175.776001L25.329994,176.078003L25.365997,176.5L25.329994,176.923004L25.223,177.333008L25.048996,177.718994L24.978004,177.824005L24.810997,178.070999L24.517998,178.376999L24.176994,178.628998L23.797997,178.820007L23.588997,178.883987L23.392998,178.944L22.972,178.998001L22.548996,178.980011L22.133995,178.889999L21.740997,178.731995z"/>
    <path transform="matrix(1,0,0,-1,74.695297,-704)" style="stroke:#00e000;stroke-width:0.05mm;fill:none" d="M178.363998,23.5L178.328003,23.921997L178.249374,24.223999L178.221008,24.333L178.04599,24.719002L177.80899,25.070999L177.514999,25.376999L177.188995,25.617912L177.173996,25.628998L176.79599,25.82L176.389999,25.944L175.970001,25.998001L175.54599,25.980003L175.140991,25.89196L175.131989,25.889999L174.738007,25.732002L174.376999,25.510002L174.05899,25.230003L173.791992,24.900002L173.585999,24.529999L173.477371,24.223999L173.444,24.129997L173.373001,23.711998L173.373001,23.288002L173.444,22.870003L173.585999,22.470001L173.749695,22.176003L173.791992,22.099998L174.05899,21.769997L174.376999,21.489998L174.738007,21.267998L175.131989,21.110001L175.140991,21.10804L175.14209,21.107803L175.54599,21.019997L175.970001,21.001999L176.389999,21.056L176.79599,21.18L177.173996,21.371002L177.188995,21.382088L177.514999,21.623001L177.80899,21.929001L177.975311,22.176003L178.04599,22.280998L178.221008,22.667L178.328003,23.077003L178.363998,23.5z"/>
    <path transform="matrix(1,0,0,-1,74.695297,-704)" style="stroke:#00e000;stroke-width:0.05mm;fill:none" d="M25.217583,24.345009L25.048996,24.719002L24.810997,25.070999L24.517998,25.376999L24.176994,25.628998L23.797997,25.82L23.588997,25.883987L23.392998,25.944L22.972,25.998001L22.548996,25.980003L22.133995,25.889999L21.740997,25.732002L21.541,25.609009L21.379997,25.510002L21.060997,25.230003L20.794998,24.900002L20.587997,24.529999L20.480133,24.223999L20.446999,24.129997L20.375,23.711998L20.375,23.288002L20.446999,22.870003L20.587997,22.470001L20.75248,22.176003L20.794998,22.099998L21.060997,21.769997L21.379997,21.489998L21.541,21.390991L21.740997,21.267998L22.133995,21.110001L22.548996,21.019997L22.972,21.001999L23.392998,21.056L23.588997,21.116013L23.797997,21.18L24.176994,21.371002L24.517998,21.623001L24.810997,21.929001L24.978004,22.176003L25.048996,22.280998L25.223,22.667L25.329994,23.077003L25.365997,23.5L25.329994,23.921997L25.251373,24.223999L25.223,24.333L25.217583,24.345009z"/>
    <path transform="matrix(1,0,0,-1,-0.939697,-979)" style="stroke:#00e000;stroke-width:0.05mm;fill:none" d="M4.530161,8.28673L9.060323,-0L4.53016,-8.286731L-4.530163,-8.286729L-9.060323,0L-4.530159,8.286732L4.530161,8.28673z"/>
    <path transform="matrix(1,0,0,-1,24.060303,-979)" style="stroke:#00e000;stroke-width:0.05mm;fill:none" d="M4.530161,8.28673L9.060323,-0L4.53016,-8.286731L-4.530163,-8.286729L-9.060323,0L-4.530159,8.286732L4.530161,8.28673z"/>
    <path transform="matrix(1,0,0,-1,49.060303,-979)" style="stroke:#00e000;stroke-width:0.05mm;fill:none" d="M4.530161,8.28673L9.060323,-0L4.53016,-8.286731L-4.530163,-8.286729L-9.060323,0L-4.530159,8.286732L4.530161,8.28673z"/>
    <path transform="matrix(1,0,0,-1,74.060303,-979)" style="stroke:#00e000;stroke-width:0.05mm;fill:none" d="M4.530161,8.28673L9.060323,-0L4.53016,-8.286731L-4.530163,-8.286729L-9.060323,0L-4.530159,8.286732L4.530161,8.28673z"/>
    <path transform="matrix(1,0,0,-1,99.060303,-979)" style="stroke:#00e000;stroke-width:0.05mm;fill:none" d="M4.530161,8.28673L9.060323,-0L4.53016,-8.286731L-4.530163,-8.286729L-9.060323,0L-4.530159,8.286732L4.530161,8.28673z"/>
    <path transform="matrix(1,0,0,-1,124.060303,-979)" style="stroke:#00e000;stroke-width:0.05mm;fill:none" d="M4.530161,8.28673L9.060323,-0L4.53016,-8.286731L-4.530163,-8.286729L-9.060323,0L-4.530159,8.286732L4.530161,8.28673z"/>
    <path transform="matrix(1,0,0,-1,149.060303,-979)" style="stroke:#00e000;stroke-width:0.05mm;fill:none" d="M4.530161,8.28673L9.060323,-0L4.53016,-8.286731L-4.530163,-8.286729L-9.060323,0L-4.530159,8.286732L4.530161,8.28673z"/>
    <path transform="matrix(1,0,0,-1,174.060303,-979)" style="stroke:#00e000;stroke-width:0.05mm;fill:none" d="M4.530161,8.28673L9.060323,-0L4.53016,-8.286731L-4.530163,-8.286729L-9.060323,0L-4.530159,8.286732L4.530161,8.28673z"/>
    <path transform="matrix(1,0,0,-1,199.060303,-979)" style="stroke:#00e000;stroke-width:0.05mm;fill:none" d="M4.530161,8.28673L9.060323,-0L4.53016,-8.286731L-4.530163,-8.286729L-9.060323,0L-4.530159,8.286732L4.530161,8.28673z"/>
    <path transform="matrix(1,0,0,-1,224.060303,-979)" style="stroke:#00e000;stroke-width:0.05mm;fill:none" d="M4.530161,8.28673L9.060323,-0L4.53016,-8.286731L-4.530163,-8.286729L-9.060323,0L-4.530159,8.286732L4.530161,8.28673z"/>
    <path transform="matrix(1,0,0,-1,249.060303,-979)" style="stroke:#00e000;stroke-width:0.05mm;fill:none" d="M4.530161,8.28673L9.060323,-0L4.53016,-8.286731L-4.530163,-8.286729L-9.060323,0L-4.530159,8.286732L4.530161,8.28673z"/>
    <path transform="matrix(1,0,0,-1,274.060303,-979)" style="stroke:#00e000;stroke-width:0.05mm;fill:none" d="M4.530161,8.28673L9.060323,-0L4.53016,-8.286731L-4.530163,-8.286729L-9.060323,0L-4.530159,8.286732L4.530161,8.28673z"/>
    <path transform="matrix(1,0,0,-1,299.060303,-979)" style="stroke:#00e000;stroke-width:0.05mm;fill:none" d="M4.530161,8.28673L9.060323,-0L4.53016,-8.286731L-4.530163,-8.286729L-9.060323,0L-4.530159,8.286732L4.530161,8.28673z"/>
    <path transform="matrix(1,0,0,-1,324.060303,-979)" style="stroke:#00e000;stroke-width:0.05mm;fill:none" d="M4.530161,8.28673L9.060323,-0L4.53016,-8.286731L-4.530163,-8.286729L-9.060323,0L-4.530159,8.286732L4.530161,8.28673z"/>
    <path transform="matrix(1,0,0,-1,349.060303,-979)" style="stroke:#00e000;stroke-width:0.05mm;fill:none" d="M4.530161,8.28673L9.060323,-0L4.53016,-8.286731L-4.530163,-8.286729L-9.060323,0L-4.530159,8.286732L4.530161,8.28673z"/>
    <path transform="matrix(1,0,0,-1,-0.939697,-954)" style="stroke:#00e000;stroke-width:0.05mm;fill:none" d="M4.530161,8.28673L9.060323,-0L4.53016,-8.286731L-4.530163,-8.286729L-9.060323,0L-4.530159,8.286732L4.530161,8.28673z"/>
    <path transform="matrix(1,0,0,-1,24.060303,-954)" style="stroke:#00e000;stroke-width:0.05mm;fill:none" d="M4.530161,8.28673L9.060323,-0L4.53016,-8.286731L-4.530163,-8.286729L-9.060323,0L-4.530159,8.286732L4.530161,8.28673z"/>
    <path transform="matrix(1,0,0,-1,49.060303,-954)" style="stroke:#00e000;stroke-width:0.05mm;fill:none" d="M4.530161,8.28673L9.060323,-0L4.53016,-8.286731L-4.530163,-8.286729L-9.060323,0L-4.530159,8.286732L4.530161,8.28673z"/>
    <path transform="matrix(1,0,0,-1,74.060303,-954)" style="stroke:#00e000;stroke-width:0.05mm;fill:none" d="M4.530161,8.28673L9.060323,-0L4.53016,-8.286731L-4.530163,-8.286729L-9.060323,0L-4.530159,8.286732L4.530161,8.28673z"/>
    <path transform="matrix(1,0,0,-1,99.060303,-954)" style="stroke:#00e000;stroke-width:0.05mm;fill:none" d="M4.530161,8.28673L9.060323,-0L4.53016,-8.286731L-4.530163,-8.286729L-9.060323,0L-4.530159,8.286732L4.530161,8.28673z"/>
    <path transform="matrix(1,0,0,-1,124.060303,-954)" style="stroke:#00e000;stroke-width:0.05mm;fill:none" d="M4.530161,8.28673L9.060323,-0L4.53016,-8.286731L-4.530163,-8.286729L-9.060323,0L-4.530159,8.286732L4.530161,8.28673z"/>
    <path transform="matrix(1,0,0,-1,149.060303,-954)" style="stroke:#00e000;stroke-width:0.05mm;fill:none" d="M4.530161,8.28673L9.060323,-0L4.53016,-8.286731L-4.530163,-8.286729L-9.060323,0L-4.530159,8.286732L4.530161,8.28673z"/>
    <path transform="matrix(1,0,0,-1,174.060303,-954)" style="stroke:#00e000;stroke-width:0.05mm;fill:none" d="M4.530161,8.28673L9.060323,-0L4.53016,-8.286731L-4.530163,-8.286729L-9.060323,0L-4.530159,8.286732L4.530161,8.28673z"/>
    <path transform="matrix(1,0,0,-1,199.060303,-954)" style="stroke:#00e000;stroke-width:0.05mm;fill:none" d="M4.530161,8.28673L9.060323,-0L4.53016,-8.286731L-4.530163,-8.286729L-9.060323,0L-4.530159,8.286732L4.530161,8.28673z"/>
    <path transform="matrix(1,0,0,-1,224.060303,-954)" style="stroke:#00e000;stroke-width:0.05mm;fill:none" d="M4.530161,8.28673L9.060323,-0L4.53016,-8.286731L-4.530163,-8.286729L-9.060323,0L-4.530159,8.286732L4.530161,8.28673z"/>
    <path transform="matrix(1,0,0,-1,249.060303,-954)" style="stroke:#00e000;stroke-width:0.05mm;fill:none" d="M4.530161,8.28673L9.060323,-0L4.53016,-8.286731L-4.530163,-8.286729L-9.060323,0L-4.530159,8.286732L4.530161,8.28673z"/>
    <path transform="matrix(1,0,0,-1,274.060303,-954)" style="stroke:#00e000;stroke-width:0.05mm;fill:none" d="M4.530161,8.28673L9.060323,-0L4.53016,-8.286731L-4.530163,-8.286729L-9.060323,0L-4.530159,8.286732L4.530161,8.28673z"/>
    <path transform="matrix(1,0,0,-1,299.060303,-954)" style="stroke:#00e000;stroke-width:0.05mm;fill:none" d="M4.530161,8.28673L9.060323,-0L4.53016,-8.286731L-4.530163,-8.286729L-9.060323,0L-4.530159,8.286732L4.530161,8.28673z"/>
    <path transform="matrix(1,0,0,-1,324.060303,-954)" style="stroke:#00e000;stroke-width:0.05mm;fill:none" d="M4.530161,8.28673L9.060323,-0L4.53016,-8.286731L-4.530163,-8.286729L-9.060323,0L-4.530159,8.286732L4.530161,8.28673z"/>
    <path transform="matrix(1,0,0,-1,349.060303,-954)" style="stroke:#00e000;stroke-width:0.05mm;fill:none" d="M4.530161,8.28673L9.060323,-0L4.53016,-8.286731L-4.530163,-8.286729L-9.060323,0L-4.530159,8.286732L4.530161,8.28673z"/>
    <path transform="matrix(1,0,0,-1,-0.939697,-929)" style="stroke:#00e000;stroke-width:0.05mm;fill:none" d="M4.530161,8.28673L9.060323,-0L4.53016,-8.286731L-4.530163,-8.286729L-9.060323,0L-4.530159,8.286732L4.530161,8.28673z"/>
    <path transform="matrix(1,0,0,-1,24.060303,-929)" style="stroke:#00e000;stroke-width:0.05mm;fill:none" d="M4.530161,8.28673L9.060323,-0L4.53016,-8.286731L-4.530163,-8.286729L-9.060323,0L-4.530159,8.286732L4.530161,8.28673z"/>
    <path transform="matrix(1,0,0,-1,49.060303,-929)" style="stroke:#00e000;stroke-width:0.05mm;fill:none" d="M4.530161,8.28673L9.060323,-0L4.53016,-8.286731L-4.530163,-8.286729L-9.060323,0L-4.530159,8.286732L4.530161,8.28673z"/>
    <path transform="matrix(1,0,0,-1,74.060303,-929)" style="stroke:#00e000;stroke-width:0.05mm;fill:none" d="M4.530161,8.28673L9.060323,-0L4.53016,-8.286731L-4.530163,-8.286729L-9.060323,0L-4.530159,8.286732L4.530161,8.28673z"/>
    <path transform="matrix(1,0,0,-1,99.060303,-929)" style="stroke:#00e000;stroke-width:0.05mm;fill:none" d="M4.530161,8.28673L9.060323,-0L4.53016,-8.286731L-4.530163,-8.286729L-9.060323,0L-4.530159,8.286732L4.530161,8.28673z"/>
    <path transform="matrix(1,0,0,-1,124.060303,-929)" style="stroke:#00e000;stroke-width:0.05mm;fill:none" d="M4.530161,8.28673L9.060323,-0L4.53016,-8.286731L-4.530163,-8.286729L-9.060323,0L-4.530159,8.286732L4.530161,8.28673z"/>
    <path transform="matrix(1,0,0,-1,149.060303,-929)" style="stroke:#00e000;stroke-width:0.05mm;fill:none" d="M4.530161,8.28673L9.060323,-0L4.53016,-8.286731L-4.530163,-8.286729L-9.060323,0L-4.530159,8.286732L4.530161,8.28673z"/>
    <path transform="matrix(1,0,0,-1,174.060303,-929)" style="stroke:#00e000;stroke-width:0.05mm;fill:none" d="M4.530161,8.28673L9.060323,-0L4.53016,-8.286731L-4.530163,-8.286729L-9.060323,0L-4.530159,8.286732L4.530161,8.28673z"/>
    <path transform="matrix(1,0,0,-1,199.060303,-929)" style="stroke:#00e000;stroke-width:0.05mm;fill:none" d="M4.530161,8.28673L9.060323,-0L4.53016,-8.286731L-4.530163,-8.286729L-9.060323,0L-4.530159,8.286732L4.530161,8.28673z"/>
    <path transform="matrix(1,0,0,-1,224.060303,-929)" style="stroke:#00e000;stroke-width:0.05mm;fill:none" d="M4.530161,8.28673L9.060323,-0L4.53016,-8.286731L-4.530163,-8.286729L-9.060323,0L-4.530159,8.286732L4.530161,8.28673z"/>
    <path transform="matrix(1,0,0,-1,249.060303,-929)" style="stroke:#00e000;stroke-width:0.05mm;fill:none" d="M4.530161,8.28673L9.060323,-0L4.53016,-8.286731L-4.530163,-8.286729L-9.060323,0L-4.530159,8.286732L4.530161,8.28673z"/>
    <path transform="matrix(1,0,0,-1,274.060303,-929)" style="stroke:#00e000;stroke-width:0.05mm;fill:none" d="M4.530161,8.28673L9.060323,-0L4.53016,-8.286731L-4.530163,-8.286729L-9.060323,0L-4.530159,8.286732L4.530161,8.28673z"/>
    <path transform="matrix(1,0,0,-1,299.060303,-929)" style="stroke:#00e000;stroke-width:0.05mm;fill:none" d="M4.530161,8.28673L9.060323,-0L4.53016,-8.286731L-4.530163,-8.286729L-9.060323,0L-4.530159,8.286732L4.530161,8.28673z"/>
    <path transform="matrix(1,0,0,-1,324.060303,-929)" style="stroke:#00e000;stroke-width:0.05mm;fill:none" d="M4.530161,8.28673L9.060323,-0L4.53016,-8.286731L-4.530163,-8.286729L-9.060323,0L-4.530159,8.286732L4.530161,8.28673z"/>
    <path transform="matrix(1,0,0,-1,349.060303,-929)" style="stroke:#00e000;stroke-width:0.05mm;fill:none" d="M4.530161,8.28673L9.060323,-0L4.53016,-8.286731L-4.530163,-8.286729L-9.060323,0L-4.530159,8.286732L4.530161,8.28673z"/>
    <path transform="matrix(1,0,0,-1,-0.939697,-904)" style="stroke:#00e000;stroke-width:0.05mm;fill:none" d="M4.530161,8.28673L9.060323,-0L4.53016,-8.286731L-4.530163,-8.286729L-9.060323,0L-4.530159,8.286732L4.530161,8.28673z"/>
    <path transform="matrix(1,0,0,-1,24.060303,-904)" style="stroke:#00e000;stroke-width:0.05mm;fill:none" d="M4.530161,8.28673L9.060323,-0L4.53016,-8.286731L-4.530163,-8.286729L-9.060323,0L-4.530159,8.286732L4.530161,8.28673z"/>
    <path transform="matrix(1,0,0,-1,49.060303,-904)" style="stroke:#00e000;stroke-width:0.05mm;fill:none" d="M4.530161,8.28673L9.060323,-0L4.53016,-8.286731L-4.530163,-8.286729L-9.060323,0L-4.530159,8.286732L4.530161,8.28673z"/>
    <path transform="matrix(1,0,0,-1,74.060303,-904)" style="stroke:#00e000;stroke-width:0.05mm;fill:none" d="M4.530161,8.28673L9.060323,-0L4.53016,-8.286731L-4.530163,-8.286729L-9.060323,0L-4.530159,8.286732L4.530161,8.28673z"/>
    <path transform="matrix(1,0,0,-1,99.060303,-904)" style="stroke:#00e000;stroke-width:0.05mm;fill:none" d="M4.530161,8.28673L9.060323,-0L4.53016,-8.286731L-4.530163,-8.286729L-9.060323,0L-4.530159,8.286732L4.530161,8.28673z"/>
    <path transform="matrix(1,0,0,-1,124.060303,-904)" style="stroke:#00e000;stroke-width:0.05mm;fill:none" d="M4.530161,8.28673L9.060323,-0L4.53016,-8.286731L-4.530163,-8.286729L-9.060323,0L-4.530159,8.286732L4.530161,8.28673z"/>
    <path transform="matrix(1,0,0,-1,149.060303,-904)" style="stroke:#00e000;stroke-width:0.05mm;fill:none" d="M4.530161,8.28673L9.060323,-0L4.53016,-8.286731L-4.530163,-8.286729L-9.060323,0L-4.530159,8.286732L4.530161,8.28673z"/>
    <path transform="matrix(1,0,0,-1,174.060303,-904)" style="stroke:#00e000;stroke-width:0.05mm;fill:none" d="M4.530161,8.28673L9.060323,-0L4.53016,-8.286731L-4.530163,-8.286729L-9.060323,0L-4.530159,8.286732L4.530161,8.28673z"/>
    <path transform="matrix(1,0,0,-1,199.060303,-904)" style="stroke:#00e000;stroke-width:0.05mm;fill:none" d="M4.530161,8.28673L9.060323,-0L4.53016,-8.286731L-4.530163,-8.286729L-9.060323,0L-4.530159,8.286732L4.530161,8.28673z"/>
    <path transform="matrix(1,0,0,-1,224.060303,-904)" style="stroke:#00e000;stroke-width:0.05mm;fill:none" d="M4.530161,8.28673L9.060323,-0L4.53016,-8.286731L-4.530163,-8.286729L-9.060323,0L-4.530159,8.286732L4.530161,8.28673z"/>
    <path transform="matrix(1,0,0,-1,249.060303,-904)" style="stroke:#00e000;stroke-width:0.05mm;fill:none" d="M4.530161,8.28673L9.060323,-0L4.53016,-8.286731L-4.530163,-8.286729L-9.060323,0L-4.530159,8.286732L4.530161,8.28673z"/>
    <path transform="matrix(1,0,0,-1,274.060303,-904)" style="stroke:#00e000;stroke-width:0.05mm;fill:none" d="M4.530161,8.28673L9.060323,-0L4.53016,-8.286731L-4.530163,-8.286729L-9.060323,0L-4.530159,8.286732L4.530161,8.28673z"/>
    <path transform="matrix(1,0,0,-1,299.060303,-904)" style="stroke:#00e000;stroke-width:0.05mm;fill:none" d="M4.530161,8.28673L9.060323,-0L4.53016,-8.286731L-4.530163,-8.286729L-9.060323,0L-4.530159,8.286732L4.530161,8.28673z"/>
    <path transform="matrix(1,0,0,-1,324.060303,-904)" style="stroke:#00e000;stroke-width:0.05mm;fill:none" d="M4.530161,8.28673L9.060323,-0L4.53016,-8.286731L-4.530163,-8.286729L-9.060323,0L-4.530159,8.286732L4.530161,8.28673z"/>
    <path transform="matrix(1,0,0,-1,349.060303,-904)" style="stroke:#00e000;stroke-width:0.05mm;fill:none" d="M4.530161,8.28673L9.060323,-0L4.53016,-8.286731L-4.530163,-8.286729L-9.060323,0L-4.530159,8.286732L4.530161,8.28673z"/>
    <path transform="matrix(1,0,0,-1,-0.939697,-879)" style="stroke:#00e000;stroke-width:0.05mm;fill:none" d="M4.530161,8.28673L9.060323,-0L4.53016,-8.286731L-4.530163,-8.286729L-9.060323,0L-4.530159,8.286732L4.530161,8.28673z"/>
    <path transform="matrix(1,0,0,-1,24.060303,-879)" style="stroke:#00e000;stroke-width:0.05mm;fill:none" d="M4.530161,8.28673L9.060323,-0L4.53016,-8.286731L-4.530163,-8.286729L-9.060323,0L-4.530159,8.286732L4.530161,8.28673z"/>
    <path transform="matrix(1,0,0,-1,49.060303,-879)" style="stroke:#00e000;stroke-width:0.05mm;fill:none" d="M4.530161,8.28673L9.060323,-0L4.53016,-8.286731L-4.530163,-8.286729L-9.060323,0L-4.530159,8.286732L4.530161,8.28673z"/>
    <path transform="matrix(1,0,0,-1,74.060303,-879)" style="stroke:#00e000;stroke-width:0.05mm;fill:none" d="M4.530161,8.28673L9.060323,-0L4.53016,-8.286731L-4.530163,-8.286729L-9.060323,0L-4.530159,8.286732L4.530161,8.28673z"/>
    <path transform="matrix(1,0,0,-1,124.060303,-879)" style="stroke:#00e000;stroke-width:0.05mm;fill:none" d="M4.530161,8.28673L9.060323,-0L4.53016,-8.286731L-4.530163,-8.286729L-9.060323,0L-4.530159,8.286732L4.530161,8.28673z"/>
    <path transform="matrix(1,0,0,-1,149.060303,-879)" style="stroke:#00e000;stroke-width:0.05mm;fill:none" d="M4.530161,8.28673L9.060323,-0L4.53016,-8.286731L-4.530163,-8.286729L-9.060323,0L-4.530159,8.286732L4.530161,8.28673z"/>
    <path transform="matrix(1,0,0,-1,174.060303,-879)" style="stroke:#00e000;stroke-width:0.05mm;fill:none" d="M4.530161,8.28673L9.060323,-0L4.53016,-8.286731L-4.530163,-8.286729L-9.060323,0L-4.530159,8.286732L4.530161,8.28673z"/>
    <path transform="matrix(1,0,0,-1,199.060303,-879)" style="stroke:#00e000;stroke-width:0.05mm;fill:none" d="M4.530161,8.28673L9.060323,-0L4.53016,-8.286731L-4.530163,-8.286729L-9.060323,0L-4.530159,8.286732L4.530161,8.28673z"/>
    <path transform="matrix(1,0,0,-1,224.060303,-879)" style="stroke:#00e000;stroke-width:0.05mm;fill:none" d="M4.530161,8.28673L9.060323,-0L4.53016,-8.286731L-4.530163,-8.286729L-9.060323,0L-4.530159,8.286732L4.530161,8.28673z"/>
    <path transform="matrix(1,0,0,-1,274.060303,-879)" style="stroke:#00e000;stroke-width:0.05mm;fill:none" d="M4.530161,8.28673L9.060323,-0L4.53016,-8.286731L-4.530163,-8.286729L-9.060323,0L-4.530159,8.286732L4.530161,8.28673z"/>
    <path transform="matrix(1,0,0,-1,299.060303,-879)" style="stroke:#00e000;stroke-width:0.05mm;fill:none" d="M4.530161,8.28673L9.060323,-0L4.53016,-8.286731L-4.530163,-8.286729L-9.060323,0L-4.530159,8.286732L4.530161,8.28673z"/>
    <path transform="matrix(1,0,0,-1,324.060303,-879)" style="stroke:#00e000;stroke-width:0.05mm;fill:none" d="M4.530161,8.28673L9.060323,-0L4.53016,-8.286731L-4.530163,-8.286729L-9.060323,0L-4.530159,8.286732L4.530161,8.28673z"/>
    <path transform="matrix(1,0,0,-1,349.060303,-879)" style="stroke:#00e000;stroke-width:0.05mm;fill:none" d="M4.530161,8.28673L9.060323,-0L4.53016,-8.286731L-4.530163,-8.286729L-9.060323,0L-4.530159,8.286732L4.530161,8.28673z"/>
    <path transform="matrix(1,0,0,-1,-0.939697,-854)" style="stroke:#00e000;stroke-width:0.05mm;fill:none" d="M4.530161,8.28673L9.060323,-0L4.53016,-8.286731L-4.530163,-8.286729L-9.060323,0L-4.530159,8.286732L4.530161,8.28673z"/>
    <path transform="matrix(1,0,0,-1,24.060303,-854)" style="stroke:#00e000;stroke-width:0.05mm;fill:none" d="M4.530161,8.28673L9.060323,-0L4.53016,-8.286731L-4.530163,-8.286729L-9.060323,0L-4.530159,8.286732L4.530161,8.28673z"/>
    <path transform="matrix(1,0,0,-1,49.060303,-854)" style="stroke:#00e000;stroke-width:0.05mm;fill:none" d="M4.530161,8.28673L9.060323,-0L4.53016,-8.286731L-4.530163,-8.286729L-9.060323,0L-4.530159,8.286732L4.530161,8.28673z"/>
    <path transform="matrix(1,0,0,-1,74.060303,-854)" style="stroke:#00e000;stroke-width:0.05mm;fill:none" d="M4.530161,8.28673L9.060323,-0L4.53016,-8.286731L-4.530163,-8.286729L-9.060323,0L-4.530159,8.286732L4.530161,8.28673z"/>
    <path transform="matrix(1,0,0,-1,99.060303,-854)" style="stroke:#00e000;stroke-width:0.05mm;fill:none" d="M4.530161,8.28673L9.060323,-0L4.53016,-8.286731L-4.530163,-8.286729L-9.060323,0L-4.530159,8.286732L4.530161,8.28673z"/>
    <path transform="matrix(1,0,0,-1,149.060303,-854)" style="stroke:#00e000;stroke-width:0.05mm;fill:none" d="M4.530161,8.28673L9.060323,-0L4.53016,-8.286731L-4.530163,-8.286729L-9.060323,0L-4.530159,8.286732L4.530161,8.28673z"/>
    <path transform="matrix(1,0,0,-1,174.060303,-854)" style="stroke:#00e000;stroke-width:0.05mm;fill:none" d="M4.530161,8.28673L9.060323,-0L4.53016,-8.286731L-4.530163,-8.286729L-9.060323,0L-4.530159,8.286732L4.530161,8.28673z"/>
    <path transform="matrix(1,0,0,-1,199.060303,-854)" style="stroke:#00e000;stroke-width:0.05mm;fill:none" d="M4.530161,8.28673L9.060323,-0L4.53016,-8.286731L-4.530163,-8.286729L-9.060323,0L-4.530159,8.286732L4.530161,8.28673z"/>
    <path transform="matrix(1,0,0,-1,249.060303,-854)" style="stroke:#00e000;stroke-width:0.05mm;fill:none" d="M4.530161,8.28673L9.060323,-0L4.53016,-8.286731L-4.530163,-8.286729L-9.060323,0L-4.530159,8.286732L4.530161,8.28673z"/>
    <path transform="matrix(1,0,0,-1,274.060303,-854)" style="stroke:#00e000;stroke-width:0.05mm;fill:none" d="M4.530161,8.28673L9.060323,-0L4.53016,-8.286731L-4.530163,-8.286729L-9.060323,0L-4.530159,8.286732L4.530161,8.28673z"/>
    <path transform="matrix(1,0,0,-1,299.060303,-854)" style="stroke:#00e000;stroke-width:0.05mm;fill:none" d="M4.530161,8.28673L9.060323,-0L4.53016,-8.286731L-4.530163,-8.286729L-9.060323,0L-4.530159,8.286732L4.530161,8.28673z"/>
    <path transform="matrix(1,0,0,-1,324.060303,-854)" style="stroke:#00e000;stroke-width:0.05mm;fill:none" d="M4.530161,8.28673L9.060323,-0L4.53016,-8.286731L-4.530163,-8.286729L-9.060323,0L-4.530159,8.286732L4.530161,8.28673z"/>
    <path transform="matrix(1,0,0,-1,349.060303,-854)" style="stroke:#00e000;stroke-width:0.05mm;fill:none" d="M4.530161,8.28673L9.060323,-0L4.53016,-8.286731L-4.530163,-8.286729L-9.060323,0L-4.530159,8.286732L4.530161,8.28673z"/>
    <path transform="matrix(1,0,0,-1,-0.939697,-829)" style="stroke:#00e000;stroke-width:0.05mm;fill:none" d="M4.530161,8.28673L9.060323,-0L4.53016,-8.286731L-4.530163,-8.286729L-9.060323,0L-4.530159,8.286732L4.530161,8.28673z"/>
    <path transform="matrix(1,0,0,-1,24.060303,-829)" style="stroke:#00e000;stroke-width:0.05mm;fill:none" d="M4.530161,8.28673L9.060323,-0L4.53016,-8.286731L-4.530163,-8.286729L-9.060323,0L-4.530159,8.286732L4.530161,8.28673z"/>
    <path transform="matrix(1,0,0,-1,49.060303,-829)" style="stroke:#00e000;stroke-width:0.05mm;fill:none" d="M4.530161,8.28673L9.060323,-0L4.53016,-8.286731L-4.530163,-8.286729L-9.060323,0L-4.530159,8.286732L4.530161,8.28673z"/>
    <path transform="matrix(1,0,0,-1,74.060303,-829)" style="stroke:#00e000;stroke-width:0.05mm;fill:none" d="M4.530161,8.28673L9.060323,-0L4.53016,-8.286731L-4.530163,-8.286729L-9.060323,0L-4.530159,8.286732L4.530161,8.28673z"/>
    <path transform="matrix(1,0,0,-1,99.060303,-829)" style="stroke:#00e000;stroke-width:0.05mm;fill:none" d="M4.530161,8.28673L9.060323,-0L4.53016,-8.286731L-4.530163,-8.286729L-9.060323,0L-4.530159,8.286732L4.530161,8.28673z"/>
    <path transform="matrix(1,0,0,-1,124.060303,-829)" style="stroke:#00e000;stroke-width:0.05mm;fill:none" d="M4.530161,8.28673L9.060323,-0L4.53016,-8.286731L-4.530163,-8.286729L-9.060323,0L-4.530159,8.286732L4.530161,8.28673z"/>
    <path transform="matrix(1,0,0,-1,149.060303,-829)" style="stroke:#00e000;stroke-width:0.05mm;fill:none" d="M4.530161,8.28673L9.060323,-0L4.53016,-8.286731L-4.530163,-8.286729L-9.060323,0L-4.530159,8.286732L4.530161,8.28673z"/>
    <path transform="matrix(1,0,0,-1,174.060303,-829)" style="stroke:#00e000;stroke-width:0.05mm;fill:none" d="M4.530161,8.28673L9.060323,-0L4.53016,-8.286731L-4.530163,-8.286729L-9.060323,0L-4.530159,8.286732L4.530161,8.28673z"/>
    <path transform="matrix(1,0,0,-1,199.060303,-829)" style="stroke:#00e000;stroke-width:0.05mm;fill:none" d="M4.530161,8.28673L9.060323,-0L4.53016,-8.286731L-4.530163,-8.286729L-9.060323,0L-4.530159,8.286732L4.530161,8.28673z"/>
    <path transform="matrix(1,0,0,-1,224.060303,-829)" style="stroke:#00e000;stroke-width:0.05mm;fill:none" d="M4.530161,8.28673L9.060323,-0L4.53016,-8.286731L-4.530163,-8.286729L-9.060323,0L-4.530159,8.286732L4.530161,8.28673z"/>
    <path transform="matrix(1,0,0,-1,249.060303,-829)" style="stroke:#00e000;stroke-width:0.05mm;fill:none" d="M4.530161,8.28673L9.060323,-0L4.53016,-8.286731L-4.530163,-8.286729L-9.060323,0L-4.530159,8.286732L4.530161,8.28673z"/>
    <path transform="matrix(1,0,0,-1,274.060303,-829)" style="stroke:#00e000;stroke-width:0.05mm;fill:none" d="M4.530161,8.28673L9.060323,-0L4.53016,-8.286731L-4.530163,-8.286729L-9.060323,0L-4.530159,8.286732L4.530161,8.28673z"/>
    <path transform="matrix(1,0,0,-1,299.060303,-829)" style="stroke:#00e000;stroke-width:0.05mm;fill:none" d="M4.530161,8.28673L9.060323,-0L4.53016,-8.286731L-4.530163,-8.286729L-9.060323,0L-4.530159,8.286732L4.530161,8.28673z"/>
    <path transform="matrix(1,0,0,-1,324.060303,-829)" style="stroke:#00e000;stroke-width:0.05mm;fill:none" d="M4.530161,8.28673L9.060323,-0L4.53016,-8.286731L-4.530163,-8.286729L-9.060323,0L-4.530159,8.286732L4.530161,8.28673z"/>
    <path transform="matrix(1,0,0,-1,349.060303,-829)" style="stroke:#00e000;stroke-width:0.05mm;fill:none" d="M4.530161,8.28673L9.060323,-0L4.53016,-8.286731L-4.530163,-8.286729L-9.060323,0L-4.530159,8.286732L4.530161,8.28673z"/>
    <path transform="matrix(1,0,0,-1,-0.939697,-804)" style="stroke:#00e000;stroke-width:0.05mm;fill:none" d="M4.530161,8.28673L9.060323,-0L4.53016,-8.286731L-4.530163,-8.286729L-9.060323,0L-4.530159,8.286732L4.530161,8.28673z"/>
    <path transform="matrix(1,0,0,-1,24.060303,-804)" style="stroke:#00e000;stroke-width:0.05mm;fill:none" d="M4.530161,8.28673L9.060323,-0L4.53016,-8.286731L-4.530163,-8.286729L-9.060323,0L-4.530159,8.286732L4.530161,8.28673z"/>
    <path transform="matrix(1,0,0,-1,49.060303,-804)" style="stroke:#00e000;stroke-width:0.05mm;fill:none" d="M4.530161,8.28673L9.060323,-0L4.53016,-8.286731L-4.530163,-8.286729L-9.060323,0L-4.530159,8.286732L4.530161,8.28673z"/>
    <path transform="matrix(1,0,0,-1,74.060303,-804)" style="stroke:#00e000;stroke-width:0.05mm;fill:none" d="M4.530161,8.28673L9.060323,-0L4.53016,-8.286731L-4.530163,-8.286729L-9.060323,0L-4.530159,8.286732L4.530161,8.28673z"/>
    <path transform="matrix(1,0,0,-1,99.060303,-804)" style="stroke:#00e000;stroke-width:0.05mm;fill:none" d="M4.530161,8.28673L9.060323,-0L4.53016,-8.286731L-4.530163,-8.286729L-9.060323,0L-4.530159,8.286732L4.530161,8.28673z"/>
    <path transform="matrix(1,0,0,-1,124.060303,-804)" style="stroke:#00e000;stroke-width:0.05mm;fill:none" d="M4.530161,8.28673L9.060323,-0L4.53016,-8.286731L-4.530163,-8.286729L-9.060323,0L-4.530159,8.286732L4.530161,8.28673z"/>
    <path transform="matrix(1,0,0,-1,149.060303,-804)" style="stroke:#00e000;stroke-width:0.05mm;fill:none" d="M4.530161,8.28673L9.060323,-0L4.53016,-8.286731L-4.530163,-8.286729L-9.060323,0L-4.530159,8.286732L4.530161,8.28673z"/>
    <path transform="matrix(1,0,0,-1,174.060303,-804)" style="stroke:#00e000;stroke-width:0.05mm;fill:none" d="M4.530161,8.28673L9.060323,-0L4.53016,-8.286731L-4.530163,-8.286729L-9.060323,0L-4.530159,8.286732L4.530161,8.28673z"/>
    <path transform="matrix(1,0,0,-1,199.060303,-804)" style="stroke:#00e000;stroke-width:0.05mm;fill:none" d="M4.530161,8.28673L9.060323,-0L4.53016,-8.286731L-4.530163,-8.286729L-9.060323,0L-4.530159,8.286732L4.530161,8.28673z"/>
    <path transform="matrix(1,0,0,-1,224.060303,-804)" style="stroke:#00e000;stroke-width:0.05mm;fill:none" d="M4.530161,8.28673L9.060323,-0L4.53016,-8.286731L-4.530163,-8.286729L-9.060323,0L-4.530159,8.286732L4.530161,8.28673z"/>
    <path transform="matrix(1,0,0,-1,249.060303,-804)" style="stroke:#00e000;stroke-width:0.05mm;fill:none" d="M4.530161,8.28673L9.060323,-0L4.53016,-8.286731L-4.530163,-8.286729L-9.060323,0L-4.530159,8.286732L4.530161,8.28673z"/>
    <path transform="matrix(1,0,0,-1,274.060303,-804)" style="stroke:#00e000;stroke-width:0.05mm;fill:none" d="M4.530161,8.28673L9.060323,-0L4.53016,-8.286731L-4.530163,-8.286729L-9.060323,0L-4.530159,8.286732L4.530161,8.28673z"/>
    <path transform="matrix(1,0,0,-1,299.060303,-804)" style="stroke:#00e000;stroke-width:0.05mm;fill:none" d="M4.530161,8.28673L9.060323,-0L4.53016,-8.286731L-4.530163,-8.286729L-9.060323,0L-4.530159,8.286732L4.530161,8.28673z"/>
    <path transform="matrix(1,0,0,-1,324.060303,-804)" style="stroke:#00e000;stroke-width:0.05mm;fill:none" d="M4.530161,8.28673L9.060323,-0L4.53016,-8.286731L-4.530163,-8.286729L-9.060323,0L-4.530159,8.286732L4.530161,8.28673z"/>
    <path transform="matrix(1,0,0,-1,349.060303,-804)" style="stroke:#00e000;stroke-width:0.05mm;fill:none" d="M4.530161,8.28673L9.060323,-0L4.53016,-8.286731L-4.530163,-8.286729L-9.060323,0L-4.530159,8.286732L4.530161,8.28673z"/>
    <path transform="matrix(1,0,0,-1,-0.939697,-779)" style="stroke:#00e000;stroke-width:0.05mm;fill:none" d="M4.530161,8.28673L9.060323,-0L4.53016,-8.286731L-4.530163,-8.286729L-9.060323,0L-4.530159,8.286732L4.530161,8.28673z"/>
    <path transform="matrix(1,0,0,-1,24.060303,-779)" style="stroke:#00e000;stroke-width:0.05mm;fill:none" d="M4.530161,8.28673L9.060323,-0L4.53016,-8.286731L-4.530163,-8.286729L-9.060323,0L-4.530159,8.286732L4.530161,8.28673z"/>
    <path transform="matrix(1,0,0,-1,49.060303,-779)" style="stroke:#00e000;stroke-width:0.05mm;fill:none" d="M4.530161,8.28673L9.060323,-0L4.53016,-8.286731L-4.530163,-8.286729L-9.060323,0L-4.530159,8.286732L4.530161,8.28673z"/>
    <path transform="matrix(1,0,0,-1,74.060303,-779)" style="stroke:#00e000;stroke-width:0.05mm;fill:none" d="M4.530161,8.28673L9.060323,-0L4.53016,-8.286731L-4.530163,-8.286729L-9.060323,0L-4.530159,8.286732L4.530161,8.28673z"/>
    <path transform="matrix(1,0,0,-1,99.060303,-779)" style="stroke:#00e000;stroke-width:0.05mm;fill:none" d="M4.530161,8.28673L9.060323,-0L4.53016,-8.286731L-4.530163,-8.286729L-9.060323,0L-4.530159,8.286732L4.530161,8.28673z"/>
    <path transform="matrix(1,0,0,-1,124.060303,-779)" style="stroke:#00e000;stroke-width:0.05mm;fill:none" d="M4.530161,8.28673L9.060323,-0L4.53016,-8.286731L-4.530163,-8.286729L-9.060323,0L-4.530159,8.286732L4.530161,8.28673z"/>
    <path transform="matrix(1,0,0,-1,149.060303,-779)" style="stroke:#00e000;stroke-width:0.05mm;fill:none" d="M4.530161,8.28673L9.060323,-0L4.53016,-8.286731L-4.530163,-8.286729L-9.060323,0L-4.530159,8.286732L4.530161,8.28673z"/>
    <path transform="matrix(1,0,0,-1,174.060303,-779)" style="stroke:#00e000;stroke-width:0.05mm;fill:none" d="M4.530161,8.28673L9.060323,-0L4.53016,-8.286731L-4.530163,-8.286729L-9.060323,0L-4.530159,8.286732L4.530161,8.28673z"/>
    <path transform="matrix(1,0,0,-1,199.060303,-779)" style="stroke:#00e000;stroke-width:0.05mm;fill:none" d="M4.530161,8.28673L9.060323,-0L4.53016,-8.286731L-4.530163,-8.286729L-9.060323,0L-4.530159,8.286732L4.530161,8.28673z"/>
    <path transform="matrix(1,0,0,-1,224.060303,-779)" style="stroke:#00e000;stroke-width:0.05mm;fill:none" d="M4.530161,8.28673L9.060323,-0L4.53016,-8.286731L-4.530163,-8.286729L-9.060323,0L-4.530159,8.286732L4.530161,8.28673z"/>
    <path transform="matrix(1,0,0,-1,249.060303,-779)" style="stroke:#00e000;stroke-width:0.05mm;fill:none" d="M4.530161,8.28673L9.060323,-0L4.53016,-8.286731L-4.530163,-8.286729L-9.060323,0L-4.530159,8.286732L4.530161,8.28673z"/>
    <path transform="matrix(1,0,0,-1,274.060303,-779)" style="stroke:#00e000;stroke-width:0.05mm;fill:none" d="M4.530161,8.28673L9.060323,-0L4.53016,-8.286731L-4.530163,-8.286729L-9.060323,0L-4.530159,8.286732L4.530161,8.28673z"/>
    <path transform="matrix(1,0,0,-1,299.060303,-779)" style="stroke:#00e000;stroke-width:0.05mm;fill:none" d="M4.530161,8.28673L9.060323,-0L4.53016,-8.286731L-4.530163,-8.286729L-9.060323,0L-4.530159,8.286732L4.530161,8.28673z"/>
    <path transform="matrix(1,0,0,-1,324.060303,-779)" style="stroke:#00e000;stroke-width:0.05mm;fill:none" d="M4.530161,8.28673L9.060323,-0L4.53016,-8.286731L-4.530163,-8.286729L-9.060323,0L-4.530159,8.286732L4.530161,8.28673z"/>
    <path transform="matrix(1,0,0,-1,349.060303,-779)" style="stroke:#00e000;stroke-width:0.05mm;fill:none" d="M4.530161,8.28673L9.060323,-0L4.53016,-8.286731L-4.530163,-8.286729L-9.060323,0L-4.530159,8.286732L4.530161,8.28673z"/>
    <path transform="matrix(1,0,0,-1,-0.939697,-754)" style="stroke:#00e000;stroke-width:0.05mm;fill:none" d="M4.530161,8.28673L9.060323,-0L4.53016,-8.286731L-4.530163,-8.286729L-9.060323,0L-4.530159,8.286732L4.530161,8.28673z"/>
    <path transform="matrix(1,0,0,-1,24.060303,-754)" style="stroke:#00e000;stroke-width:0.05mm;fill:none" d="M4.530161,8.28673L9.060323,-0L4.53016,-8.286731L-4.530163,-8.286729L-9.060323,0L-4.530159,8.286732L4.530161,8.28673z"/>
    <path transform="matrix(1,0,0,-1,49.060303,-754)" style="stroke:#00e000;stroke-width:0.05mm;fill:none" d="M4.530161,8.28673L9.060323,-0L4.53016,-8.286731L-4.530163,-8.286729L-9.060323,0L-4.530159,8.286732L4.530161,8.28673z"/>
    <path transform="matrix(1,0,0,-1,74.060303,-754)" style="stroke:#00e000;stroke-width:0.05mm;fill:none" d="M4.530161,8.28673L9.060323,-0L4.53016,-8.286731L-4.530163,-8.286729L-9.060323,0L-4.530159,8.286732L4.530161,8.28673z"/>
    <path transform="matrix(1,0,0,-1,99.060303,-754)" style="stroke:#00e000;stroke-width:0.05mm;fill:none" d="M4.530161,8.28673L9.060323,-0L4.53016,-8.286731L-4.530163,-8.286729L-9.060323,0L-4.530159,8.286732L4.530161,8.28673z"/>
    <path transform="matrix(1,0,0,-1,149.060303,-754)" style="stroke:#00e000;stroke-width:0.05mm;fill:none" d="M4.530161,8.28673L9.060323,-0L4.53016,-8.286731L-4.530163,-8.286729L-9.060323,0L-4.530159,8.286732L4.530161,8.28673z"/>
    <path transform="matrix(1,0,0,-1,174.060303,-754)" style="stroke:#00e000;stroke-width:0.05mm;fill:none" d="M4.530161,8.28673L9.060323,-0L4.53016,-8.286731L-4.530163,-8.286729L-9.060323,0L-4.530159,8.286732L4.530161,8.28673z"/>
    <path transform="matrix(1,0,0,-1,199.060303,-754)" style="stroke:#00e000;stroke-width:0.05mm;fill:none" d="M4.530161,8.28673L9.060323,-0L4.53016,-8.286731L-4.530163,-8.286729L-9.060323,0L-4.530159,8.286732L4.530161,8.28673z"/>
    <path transform="matrix(1,0,0,-1,249.060303,-754)" style="stroke:#00e000;stroke-width:0.05mm;fill:none" d="M4.530161,8.28673L9.060323,-0L4.53016,-8.286731L-4.530163,-8.286729L-9.060323,0L-4.530159,8.286732L4.530161,8.28673z"/>
    <path transform="matrix(1,0,0,-1,274.060303,-754)" style="stroke:#00e000;stroke-width:0.05mm;fill:none" d="M4.530161,8.28673L9.060323,-0L4.53016,-8.286731L-4.530163,-8.286729L-9.060323,0L-4.530159,8.286732L4.530161,8.28673z"/>
    <path transform="matrix(1,0,0,-1,299.060303,-754)" style="stroke:#00e000;stroke-width:0.05mm;fill:none" d="M4.530161,8.28673L9.060323,-0L4.53016,-8.286731L-4.530163,-8.286729L-9.060323,0L-4.530159,8.286732L4.530161,8.28673z"/>
    <path transform="matrix(1,0,0,-1,324.060303,-754)" style="stroke:#00e000;stroke-width:0.05mm;fill:none" d="M4.530161,8.28673L9.060323,-0L4.53016,-8.286731L-4.530163,-8.286729L-9.060323,0L-4.530159,8.286732L4.530161,8.28673z"/>
    <path transform="matrix(1,0,0,-1,349.060303,-754)" style="stroke:#00e000;stroke-width:0.05mm;fill:none" d="M4.530161,8.28673L9.060323,-0L4.53016,-8.286731L-4.530163,-8.286729L-9.060323,0L-4.530159,8.286732L4.530161,8.28673z"/>
    <path transform="matrix(1,0,0,-1,-0.939697,-729)" style="stroke:#00e000;stroke-width:0.05mm;fill:none" d="M4.530161,8.28673L9.060323,-0L4.53016,-8.286731L-4.530163,-8.286729L-9.060323,0L-4.530159,8.286732L4.530161,8.28673z"/>
    <path transform="matrix(1,0,0,-1,24.060303,-729)" style="stroke:#00e000;stroke-width:0.05mm;fill:none" d="M4.530161,8.28673L9.060323,-0L4.53016,-8.286731L-4.530163,-8.286729L-9.060323,0L-4.530159,8.286732L4.530161,8.28673z"/>
    <path transform="matrix(1,0,0,-1,49.060303,-729)" style="stroke:#00e000;stroke-width:0.05mm;fill:none" d="M4.530161,8.28673L9.060323,-0L4.53016,-8.286731L-4.530163,-8.286729L-9.060323,0L-4.530159,8.286732L4.530161,8.28673z"/>
    <path transform="matrix(1,0,0,-1,74.060303,-729)" style="stroke:#00e000;stroke-width:0.05mm;fill:none" d="M4.530161,8.28673L9.060323,-0L4.53016,-8.286731L-4.530163,-8.286729L-9.060323,0L-4.530159,8.286732L4.530161,8.28673z"/>
    <path transform="matrix(1,0,0,-1,124.060303,-729)" style="stroke:#00e000;stroke-width:0.05mm;fill:none" d="M4.530161,8.28673L9.060323,-0L4.53016,-8.286731L-4.530163,-8.286729L-9.060323,0L-4.530159,8.286732L4.530161,8.28673z"/>
    <path transform="matrix(1,0,0,-1,149.060303,-729)" style="stroke:#00e000;stroke-width:0.05mm;fill:none" d="M4.530161,8.28673L9.060323,-0L4.53016,-8.286731L-4.530163,-8.286729L-9.060323,0L-4.530159,8.286732L4.530161,8.28673z"/>
    <path transform="matrix(1,0,0,-1,174.060303,-729)" style="stroke:#00e000;stroke-width:0.05mm;fill:none" d="M4.530161,8.28673L9.060323,-0L4.53016,-8.286731L-4.530163,-8.286729L-9.060323,0L-4.530159,8.286732L4.530161,8.28673z"/>
    <path transform="matrix(1,0,0,-1,199.060303,-729)" style="stroke:#00e000;stroke-width:0.05mm;fill:none" d="M4.530161,8.28673L9.060323,-0L4.53016,-8.286731L-4.530163,-8.286729L-9.060323,0L-4.530159,8.286732L4.530161,8.28673z"/>
    <path transform="matrix(1,0,0,-1,224.060303,-729)" style="stroke:#00e000;stroke-width:0.05mm;fill:none" d="M4.530161,8.28673L9.060323,-0L4.53016,-8.286731L-4.530163,-8.286729L-9.060323,0L-4.530159,8.286732L4.530161,8.28673z"/>
    <path transform="matrix(1,0,0,-1,274.060303,-729)" style="stroke:#00e000;stroke-width:0.05mm;fill:none" d="M4.530161,8.28673L9.060323,-0L4.53016,-8.286731L-4.530163,-8.286729L-9.060323,0L-4.530159,8.286732L4.530161,8.28673z"/>
    <path transform="matrix(1,0,0,-1,299.060303,-729)" style="stroke:#00e000;stroke-width:0.05mm;fill:none" d="M4.530161,8.28673L9.060323,-0L4.53016,-8.286731L-4.530163,-8.286729L-9.060323,0L-4.530159,8.286732L4.530161,8.28673z"/>
    <path transform="matrix(1,0,0,-1,324.060303,-729)" style="stroke:#00e000;stroke-width:0.05mm;fill:none" d="M4.530161,8.28673L9.060323,-0L4.53016,-8.286731L-4.530163,-8.286729L-9.060323,0L-4.530159,8.286732L4.530161,8.28673z"/>
    <path transform="matrix(1,0,0,-1,349.060303,-729)" style="stroke:#00e000;stroke-width:0.05mm;fill:none" d="M4.530161,8.28673L9.060323,-0L4.53016,-8.286731L-4.530163,-8.286729L-9.060323,0L-4.530159,8.286732L4.530161,8.28673z"/>
    <path transform="matrix(1,0,0,-1,-0.939697,-704)" style="stroke:#00e000;stroke-width:0.05mm;fill:none" d="M4.530161,8.28673L9.060323,-0L4.53016,-8.286731L-4.530163,-8.286729L-9.060323,0L-4.530159,8.286732L4.530161,8.28673z"/>
    <path transform="matrix(1,0,0,-1,24.060303,-704)" style="stroke:#00e000;stroke-width:0.05mm;fill:none" d="M4.530161,8.28673L9.060323,-0L4.53016,-8.286731L-4.530163,-8.286729L-9.060323,0L-4.530159,8.286732L4.530161,8.28673z"/>
    <path transform="matrix(1,0,0,-1,49.060303,-704)" style="stroke:#00e000;stroke-width:0.05mm;fill:none" d="M4.530161,8.28673L9.060323,-0L4.53016,-8.286731L-4.530163,-8.286729L-9.060323,0L-4.530159,8.286732L4.530161,8.28673z"/>
    <path transform="matrix(1,0,0,-1,74.060303,-704)" style="stroke:#00e000;stroke-width:0.05mm;fill:none" d="M4.530161,8.28673L9.060323,-0L4.53016,-8.286731L-4.530163,-8.286729L-9.060323,0L-4.530159,8.286732L4.530161,8.28673z"/>
    <path transform="matrix(1,0,0,-1,99.060303,-704)" style="stroke:#00e000;stroke-width:0.05mm;fill:none" d="M4.530161,8.28673L9.060323,-0L4.53016,-8.286731L-4.530163,-8.286729L-9.060323,0L-4.530159,8.286732L4.530161,8.28673z"/>
    <path transform="matrix(1,0,0,-1,124.060303,-704)" style="stroke:#00e000;stroke-width:0.05mm;fill:none" d="M4.530161,8.28673L9.060323,-0L4.53016,-8.286731L-4.530163,-8.286729L-9.060323,0L-4.530159,8.286732L4.530161,8.28673z"/>
    <path transform="matrix(1,0,0,-1,149.060303,-704)" style="stroke:#00e000;stroke-width:0.05mm;fill:none" d="M4.530161,8.28673L9.060323,-0L4.53016,-8.286731L-4.530163,-8.286729L-9.060323,0L-4.530159,8.286732L4.530161,8.28673z"/>
    <path transform="matrix(1,0,0,-1,174.060303,-704)" style="stroke:#00e000;stroke-width:0.05mm;fill:none" d="M4.530161,8.28673L9.060323,-0L4.53016,-8.286731L-4.530163,-8.286729L-9.060323,0L-4.530159,8.286732L4.530161,8.28673z"/>
    <path transform="matrix(1,0,0,-1,199.060303,-704)" style="stroke:#00e000;stroke-width:0.05mm;fill:none" d="M4.530161,8.28673L9.060323,-0L4.53016,-8.286731L-4.530163,-8.286729L-9.060323,0L-4.530159,8.286732L4.530161,8.28673z"/>
    <path transform="matrix(1,0,0,-1,224.060303,-704)" style="stroke:#00e000;stroke-width:0.05mm;fill:none" d="M4.530161,8.28673L9.060323,-0L4.53016,-8.286731L-4.530163,-8.286729L-9.060323,0L-4.530159,8.286732L4.530161,8.28673z"/>
    <path transform="matrix(1,0,0,-1,249.060303,-704)" style="stroke:#00e000;stroke-width:0.05mm;fill:none" d="M4.530161,8.28673L9.060323,-0L4.53016,-8.286731L-4.530163,-8.286729L-9.060323,0L-4.530159,8.286732L4.530161,8.28673z"/>
    <path transform="matrix(1,0,0,-1,274.060303,-704)" style="stroke:#00e000;stroke-width:0.05mm;fill:none" d="M4.530161,8.28673L9.060323,-0L4.53016,-8.286731L-4.530163,-8.286729L-9.060323,0L-4.530159,8.286732L4.530161,8.28673z"/>
    <path transform="matrix(1,0,0,-1,299.060303,-704)" style="stroke:#00e000;stroke-width:0.05mm;fill:none" d="M4.530161,8.28673L9.060323,-0L4.53016,-8.286731L-4.530163,-8.286729L-9.060323,0L-4.530159,8.286732L4.530161,8.28673z"/>
    <path transform="matrix(1,0,0,-1,324.060303,-704)" style="stroke:#00e000;stroke-width:0.05mm;fill:none" d="M4.530161,8.28673L9.060323,-0L4.53016,-8.286731L-4.530163,-8.286729L-9.060323,0L-4.530159,8.286732L4.530161,8.28673z"/>
    <path transform="matrix(1,0,0,-1,349.060303,-704)" style="stroke:#00e000;stroke-width:0.05mm;fill:none" d="M4.530161,8.28673L9.060323,-0L4.53016,-8.286731L-4.530163,-8.286729L-9.060323,0L-4.530159,8.286732L4.530161,8.28673z"/>
    <path transform="matrix(1,0,0,-1,-0.939697,-679)" style="stroke:#00e000;stroke-width:0.05mm;fill:none" d="M4.530161,8.28673L9.060323,-0L4.53016,-8.286731L-4.530163,-8.286729L-9.060323,0L-4.530159,8.286732L4.530161,8.28673z"/>
    <path transform="matrix(1,0,0,-1,24.060303,-679)" style="stroke:#00e000;stroke-width:0.05mm;fill:none" d="M4.530161,8.28673L9.060323,-0L4.53016,-8.286731L-4.530163,-8.286729L-9.060323,0L-4.530159,8.286732L4.530161,8.28673z"/>
    <path transform="matrix(1,0,0,-1,49.060303,-679)" style="stroke:#00e000;stroke-width:0.05mm;fill:none" d="M4.530161,8.28673L9.060323,-0L4.53016,-8.286731L-4.530163,-8.286729L-9.060323,0L-4.530159,8.286732L4.530161,8.28673z"/>
    <path transform="matrix(1,0,0,-1,74.060303,-679)" style="stroke:#00e000;stroke-width:0.05mm;fill:none" d="M4.530161,8.28673L9.060323,-0L4.53016,-8.286731L-4.530163,-8.286729L-9.060323,0L-4.530159,8.286732L4.530161,8.28673z"/>
    <path transform="matrix(1,0,0,-1,99.060303,-679)" style="stroke:#00e000;stroke-width:0.05mm;fill:none" d="M4.530161,8.28673L9.060323,-0L4.53016,-8.286731L-4.530163,-8.286729L-9.060323,0L-4.530159,8.286732L4.530161,8.28673z"/>
    <path transform="matrix(1,0,0,-1,124.060303,-679)" style="stroke:#00e000;stroke-width:0.05mm;fill:none" d="M4.530161,8.28673L9.060323,-0L4.53016,-8.286731L-4.530163,-8.286729L-9.060323,0L-4.530159,8.286732L4.530161,8.28673z"/>
    <path transform="matrix(1,0,0,-1,149.060303,-679)" style="stroke:#00e000;stroke-width:0.05mm;fill:none" d="M4.530161,8.28673L9.060323,-0L4.53016,-8.286731L-4.530163,-8.286729L-9.060323,0L-4.530159,8.286732L4.530161,8.28673z"/>
    <path transform="matrix(1,0,0,-1,174.060303,-679)" style="stroke:#00e000;stroke-width:0.05mm;fill:none" d="M4.530161,8.28673L9.060323,-0L4.53016,-8.286731L-4.530163,-8.286729L-9.060323,0L-4.530159,8.286732L4.530161,8.28673z"/>
    <path transform="matrix(1,0,0,-1,199.060303,-679)" style="stroke:#00e000;stroke-width:0.05mm;fill:none" d="M4.530161,8.28673L9.060323,-0L4.53016,-8.286731L-4.530163,-8.286729L-9.060323,0L-4.530159,8.286732L4.530161,8.28673z"/>
    <path transform="matrix(1,0,0,-1,224.060303,-679)" style="stroke:#00e000;stroke-width:0.05mm;fill:none" d="M4.530161,8.28673L9.060323,-0L4.53016,-8.286731L-4.530163,-8.286729L-9.060323,0L-4.530159,8.286732L4.530161,8.28673z"/>
    <path transform="matrix(1,0,0,-1,249.060303,-679)" style="stroke:#00e000;stroke-width:0.05mm;fill:none" d="M4.530161,8.28673L9.060323,-0L4.53016,-8.286731L-4.530163,-8.286729L-9.060323,0L-4.530159,8.286732L4.530161,8.28673z"/>
    <path transform="matrix(1,0,0,-1,274.060303,-679)" style="stroke:#00e000;stroke-width:0.05mm;fill:none" d="M4.530161,8.28673L9.060323,-0L4.53016,-8.286731L-4.530163,-8.286729L-9.060323,0L-4.530159,8.286732L4.530161,8.28673z"/>
    <path transform="matrix(1,0,0,-1,299.060303,-679)" style="stroke:#00e000;stroke-width:0.05mm;fill:none" d="M4.530161,8.28673L9.060323,-0L4.53016,-8.286731L-4.530163,-8.286729L-9.060323,0L-4.530159,8.286732L4.530161,8.28673z"/>
    <path transform="matrix(1,0,0,-1,324.060303,-679)" style="stroke:#00e000;stroke-width:0.05mm;fill:none" d="M4.530161,8.28673L9.060323,-0L4.53016,-8.286731L-4.530163,-8.286729L-9.060323,0L-4.530159,8.286732L4.530161,8.28673z"/>
    <path transform="matrix(1,0,0,-1,349.060303,-679)" style="stroke:#00e000;stroke-width:0.05mm;fill:none" d="M4.530161,8.28673L9.060323,-0L4.53016,-8.286731L-4.530163,-8.286729L-9.060323,0L-4.530159,8.286732L4.530161,8.28673z"/>
    <path transform="matrix(1,0,0,-1,-0.939697,-654)" style="stroke:#00e000;stroke-width:0.05mm;fill:none" d="M4.530161,8.28673L9.060323,-0L4.53016,-8.286731L-4.530163,-8.286729L-9.060323,0L-4.530159,8.286732L4.530161,8.28673z"/>
    <path transform="matrix(1,0,0,-1,24.060303,-654)" style="stroke:#00e000;stroke-width:0.05mm;fill:none" d="M4.530161,8.28673L9.060323,-0L4.53016,-8.286731L-4.530163,-8.286729L-9.060323,0L-4.530159,8.286732L4.530161,8.28673z"/>
    <path transform="matrix(1,0,0,-1,49.060303,-654)" style="stroke:#00e000;stroke-width:0.05mm;fill:none" d="M4.530161,8.28673L9.060323,-0L4.53016,-8.286731L-4.530163,-8.286729L-9.060323,0L-4.530159,8.286732L4.530161,8.28673z"/>
    <path transform="matrix(1,0,0,-1,74.060303,-654)" style="stroke:#00e000;stroke-width:0.05mm;fill:none" d="M4.530161,8.28673L9.060323,-0L4.53016,-8.286731L-4.530163,-8.286729L-9.060323,0L-4.530159,8.286732L4.530161,8.28673z"/>
    <path transform="matrix(1,0,0,-1,99.060303,-654)" style="stroke:#00e000;stroke-width:0.05mm;fill:none" d="M4.530161,8.28673L9.060323,-0L4.53016,-8.286731L-4.530163,-8.286729L-9.060323,0L-4.530159,8.286732L4.530161,8.28673z"/>
    <path transform="matrix(1,0,0,-1,124.060303,-654)" style="stroke:#00e000;stroke-width:0.05mm;fill:none" d="M4.530161,8.28673L9.060323,-0L4.53016,-8.286731L-4.530163,-8.286729L-9.060323,0L-4.530159,8.286732L4.530161,8.28673z"/>
    <path transform="matrix(1,0,0,-1,149.060303,-654)" style="stroke:#00e000;stroke-width:0.05mm;fill:none" d="M4.530161,8.28673L9.060323,-0L4.53016,-8.286731L-4.530163,-8.286729L-9.060323,0L-4.530159,8.286732L4.530161,8.28673z"/>
    <path transform="matrix(1,0,0,-1,174.060303,-654)" style="stroke:#00e000;stroke-width:0.05mm;fill:none" d="M4.530161,8.28673L9.060323,-0L4.53016,-8.286731L-4.530163,-8.286729L-9.060323,0L-4.530159,8.286732L4.530161,8.28673z"/>
    <path transform="matrix(1,0,0,-1,199.060303,-654)" style="stroke:#00e000;stroke-width:0.05mm;fill:none" d="M4.530161,8.28673L9.060323,-0L4.53016,-8.286731L-4.530163,-8.286729L-9.060323,0L-4.530159,8.286732L4.530161,8.28673z"/>
    <path transform="matrix(1,0,0,-1,224.060303,-654)" style="stroke:#00e000;stroke-width:0.05mm;fill:none" d="M4.530161,8.28673L9.060323,-0L4.53016,-8.286731L-4.530163,-8.286729L-9.060323,0L-4.530159,8.286732L4.530161,8.28673z"/>
    <path transform="matrix(1,0,0,-1,249.060303,-654)" style="stroke:#00e000;stroke-width:0.05mm;fill:none" d="M4.530161,8.28673L9.060323,-0L4.53016,-8.286731L-4.530163,-8.286729L-9.060323,0L-4.530159,8.286732L4.530161,8.28673z"/>
    <path transform="matrix(1,0,0,-1,274.060303,-654)" style="stroke:#00e000;stroke-width:0.05mm;fill:none" d="M4.530161,8.28673L9.060323,-0L4.53016,-8.286731L-4.530163,-8.286729L-9.060323,0L-4.530159,8.286732L4.530161,8.28673z"/>
    <path transform="matrix(1,0,0,-1,299.060303,-654)" style="stroke:#00e000;stroke-width:0.05mm;fill:none" d="M4.530161,8.28673L9.060323,-0L4.53016,-8.286731L-4.530163,-8.286729L-9.060323,0L-4.530159,8.286732L4.530161,8.28673z"/>
    <path transform="matrix(1,0,0,-1,324.060303,-654)" style="stroke:#00e000;stroke-width:0.05mm;fill:none" d="M4.530161,8.28673L9.060323,-0L4.53016,-8.286731L-4.530163,-8.286729L-9.060323,0L-4.530159,8.286732L4.530161,8.28673z"/>
    <path transform="matrix(1,0,0,-1,349.060303,-654)" style="stroke:#00e000;stroke-width:0.05mm;fill:none" d="M4.530161,8.28673L9.060323,-0L4.53016,-8.286731L-4.530163,-8.286729L-9.060323,0L-4.530159,8.286732L4.530161,8.28673z"/>
    <path transform="matrix(1,0,0,-1,-0.939697,-629)" style="stroke:#00e000;stroke-width:0.05mm;fill:none" d="M4.530161,8.28673L9.060323,-0L4.53016,-8.286731L-4.530163,-8.286729L-9.060323,0L-4.530159,8.286732L4.530161,8.28673z"/>
    <path transform="matrix(1,0,0,-1,24.060303,-629)" style="stroke:#00e000;stroke-width:0.05mm;fill:none" d="M4.530161,8.28673L9.060323,-0L4.53016,-8.286731L-4.530163,-8.286729L-9.060323,0L-4.530159,8.286732L4.530161,8.28673z"/>
    <path transform="matrix(1,0,0,-1,49.060303,-629)" style="stroke:#00e000;stroke-width:0.05mm;fill:none" d="M4.530161,8.28673L9.060323,-0L4.53016,-8.286731L-4.530163,-8.286729L-9.060323,0L-4.530159,8.286732L4.530161,8.28673z"/>
    <path transform="matrix(1,0,0,-1,74.060303,-629)" style="stroke:#00e000;stroke-width:0.05mm;fill:none" d="M4.530161,8.28673L9.060323,-0L4.53016,-8.286731L-4.530163,-8.286729L-9.060323,0L-4.530159,8.286732L4.530161,8.28673z"/>
    <path transform="matrix(1,0,0,-1,99.060303,-629)" style="stroke:#00e000;stroke-width:0.05mm;fill:none" d="M4.530161,8.28673L9.060323,-0L4.53016,-8.286731L-4.530163,-8.286729L-9.060323,0L-4.530159,8.286732L4.530161,8.28673z"/>
    <path transform="matrix(1,0,0,-1,124.060303,-629)" style="stroke:#00e000;stroke-width:0.05mm;fill:none" d="M4.530161,8.28673L9.060323,-0L4.53016,-8.286731L-4.530163,-8.286729L-9.060323,0L-4.530159,8.286732L4.530161,8.28673z"/>
    <path transform="matrix(1,0,0,-1,149.060303,-629)" style="stroke:#00e000;stroke-width:0.05mm;fill:none" d="M4.530161,8.28673L9.060323,-0L4.53016,-8.286731L-4.530163,-8.286729L-9.060323,0L-4.530159,8.286732L4.530161,8.28673z"/>
    <path transform="matrix(1,0,0,-1,174.060303,-629)" style="stroke:#00e000;stroke-width:0.05mm;fill:none" d="M4.530161,8.28673L9.060323,-0L4.53016,-8.286731L-4.530163,-8.286729L-9.060323,0L-4.530159,8.286732L4.530161,8.28673z"/>
    <path transform="matrix(1,0,0,-1,199.060303,-629)" style="stroke:#00e000;stroke-width:0.05mm;fill:none" d="M4.530161,8.28673L9.060323,-0L4.53016,-8.286731L-4.530163,-8.286729L-9.060323,0L-4.530159,8.286732L4.530161,8.28673z"/>
    <path transform="matrix(1,0,0,-1,224.060303,-629)" style="stroke:#00e000;stroke-width:0.05mm;fill:none" d="M4.530161,8.28673L9.060323,-0L4.53016,-8.286731L-4.530163,-8.286729L-9.060323,0L-4.530159,8.286732L4.530161,8.28673z"/>
    <path transform="matrix(1,0,0,-1,249.060303,-629)" style="stroke:#00e000;stroke-width:0.05mm;fill:none" d="M4.530161,8.28673L9.060323,-0L4.53016,-8.286731L-4.530163,-8.286729L-9.060323,0L-4.530159,8.286732L4.530161,8.28673z"/>
    <path transform="matrix(1,0,0,-1,274.060303,-629)" style="stroke:#00e000;stroke-width:0.05mm;fill:none" d="M4.530161,8.28673L9.060323,-0L4.53016,-8.286731L-4.530163,-8.286729L-9.060323,0L-4.530159,8.286732L4.530161,8.28673z"/>
    <path transform="matrix(1,0,0,-1,299.060303,-629)" style="stroke:#00e000;stroke-width:0.05mm;fill:none" d="M4.530161,8.28673L9.060323,-0L4.53016,-8.286731L-4.530163,-8.286729L-9.060323,0L-4.530159,8.286732L4.530161,8.28673z"/>
    <path transform="matrix(1,0,0,-1,324.060303,-629)" style="stroke:#00e000;stroke-width:0.05mm;fill:none" d="M4.530161,8.28673L9.060323,-0L4.53016,-8.286731L-4.530163,-8.286729L-9.060323,0L-4.530159,8.286732L4.530161,8.28673z"/>
    <path transform="matrix(1,0,0,-1,349.060303,-629)" style="stroke:#00e000;stroke-width:0.05mm;fill:none" d="M4.530161,8.28673L9.060323,-0L4.53016,-8.286731L-4.530163,-8.286729L-9.060323,0L-4.530159,8.286732L4.530161,8.28673z"/>
    <path transform="matrix(1,0,0,-1,49.767303,-728.398987)" style="stroke:#00e000;stroke-width:0.05mm;fill:none" d="M178.363998,23.5L178.328003,23.921997L178.249374,24.223999L178.221008,24.333L178.04599,24.719002L177.80899,25.070999L177.514999,25.376999L177.188995,25.617912L177.173996,25.628998L176.79599,25.82L176.389999,25.944L175.970001,25.998001L175.54599,25.980003L175.140991,25.89196L175.131989,25.889999L174.738007,25.732002L174.376999,25.510002L174.05899,25.230003L173.791992,24.900002L173.585999,24.529999L173.477371,24.223999L173.444,24.129997L173.373001,23.711998L173.373001,23.288002L173.444,22.870003L173.585999,22.470001L173.749695,22.176003L173.791992,22.099998L174.05899,21.769997L174.376999,21.489998L174.738007,21.267998L175.131989,21.110001L175.140991,21.10804L175.14209,21.107803L175.54599,21.019997L175.970001,21.001999L176.389999,21.056L176.79599,21.18L177.173996,21.371002L177.188995,21.382088L177.514999,21.623001L177.80899,21.929001L177.975311,22.176003L178.04599,22.280998L178.221008,22.667L178.328003,23.077003L178.363998,23.5z"/>
    <path transform="matrix(1,0,0,-1,-53.233696,-728.398987)" style="stroke:#00e000;stroke-width:0.05mm;fill:none" d="M178.363998,23.5L178.328003,23.921997L178.249374,24.223999L178.221008,24.333L178.04599,24.719002L177.80899,25.070999L177.514999,25.376999L177.188995,25.617912L177.173996,25.628998L176.79599,25.82L176.389999,25.944L175.970001,25.998001L175.54599,25.980003L175.140991,25.89196L175.131989,25.889999L174.738007,25.732002L174.376999,25.510002L174.05899,25.230003L173.791992,24.900002L173.585999,24.529999L173.477371,24.223999L173.444,24.129997L173.373001,23.711998L173.373001,23.288002L173.444,22.870003L173.585999,22.470001L173.749695,22.176003L173.791992,22.099998L174.05899,21.769997L174.376999,21.489998L174.738007,21.267998L175.131989,21.110001L175.140991,21.10804L175.14209,21.107803L175.54599,21.019997L175.970001,21.001999L176.389999,21.056L176.79599,21.18L177.173996,21.371002L177.188995,21.382088L177.514999,21.623001L177.80899,21.929001L177.975311,22.176003L178.04599,22.280998L178.221008,22.667L178.328003,23.077003L178.363998,23.5z"/>
    <path transform="matrix(1,0,0,-1,-54.408699,-833.398987)" style="stroke:#00e000;stroke-width:0.05mm;fill:none" d="M178.363998,23.5L178.328003,23.921997L178.249374,24.223999L178.221008,24.333L178.04599,24.719002L177.80899,25.070999L177.514999,25.376999L177.188995,25.617912L177.173996,25.628998L176.79599,25.82L176.389999,25.944L175.970001,25.998001L175.54599,25.980003L175.140991,25.89196L175.131989,25.889999L174.738007,25.732002L174.376999,25.510002L174.05899,25.230003L173.791992,24.900002L173.585999,24.529999L173.477371,24.223999L173.444,24.129997L173.373001,23.711998L173.373001,23.288002L173.444,22.870003L173.585999,22.470001L173.749695,22.176003L173.791992,22.099998L174.05899,21.769997L174.376999,21.489998L174.738007,21.267998L175.131989,21.110001L175.140991,21.10804L175.14209,21.107803L175.54599,21.019997L175.970001,21.001999L176.389999,21.056L176.79599,21.18L177.173996,21.371002L177.188995,21.382088L177.514999,21.623001L177.80899,21.929001L177.975311,22.176003L178.04599,22.280998L178.221008,22.667L178.328003,23.077003L178.363998,23.5z"/>
    <path transform="matrix(1,0,0,-1,49.942307,-833.398987)" style="stroke:#00e000;stroke-width:0.05mm;fill:none" d="M178.363998,23.5L178.328003,23.921997L178.249374,24.223999L178.221008,24.333L178.04599,24.719002L177.80899,25.070999L177.514999,25.376999L177.188995,25.617912L177.173996,25.628998L176.79599,25.82L176.389999,25.944L175.970001,25.998001L175.54599,25.980003L175.140991,25.89196L175.131989,25.889999L174.738007,25.732002L174.376999,25.510002L174.05899,25.230003L173.791992,24.900002L173.585999,24.529999L173.477371,24.223999L173.444,24.129997L173.373001,23.711998L173.373001,23.288002L173.444,22.870003L173.585999,22.470001L173.749695,22.176003L173.791992,22.099998L174.05899,21.769997L174.376999,21.489998L174.738007,21.267998L175.131989,21.110001L175.140991,21.10804L175.14209,21.107803L175.54599,21.019997L175.970001,21.001999L176.389999,21.056L176.79599,21.18L177.173996,21.371002L177.188995,21.382088L177.514999,21.623001L177.80899,21.929001L177.975311,22.176003L178.04599,22.280998L178.221008,22.667L178.328003,23.077003L178.363998,23.5z"/>
</svg>
